<svg width="20" height="20" viewBox="0 0 20 20" fill="none" xmlns="http://www.w3.org/2000/svg">
<path fill-rule="evenodd" clip-rule="evenodd" d="M9.99567 0C8.40437 0 6.87825 0.632141 5.75303 1.75736C4.62781 2.88258 3.99567 4.4087 3.99567 6V7.875L3.09567 7.2C2.99061 7.12121 2.87106 7.06388 2.74385 7.03129C2.61664 6.99869 2.48425 6.99148 2.35425 7.01005C2.22425 7.02862 2.09918 7.07262 1.98618 7.13953C1.87318 7.20643 1.77446 7.29494 1.69567 7.4C1.61688 7.50506 1.55955 7.62461 1.52696 7.75182C1.49437 7.87903 1.48715 8.01142 1.50572 8.14142C1.52429 8.27142 1.56829 8.39649 1.6352 8.50949C1.7021 8.62249 1.79061 8.72121 1.89567 8.8L3.76167 10.2C3.31767 11.368 2.23467 12.59 0.481671 13.643C0.366688 13.7136 0.26701 13.8065 0.18852 13.9162C0.110031 14.0259 0.0543206 14.1503 0.024679 14.2819C-0.00496264 14.4135 -0.00793508 14.5497 0.0159371 14.6825C0.0398094 14.8153 0.0900425 14.9419 0.163671 15.055C1.28167 16.732 3.05567 18 4.99567 18C5.67267 18 6.19867 18.43 6.71967 18.809C7.45167 19.34 8.41867 20 9.99567 20C11.5727 20 12.5387 19.341 13.2707 18.809C13.7927 18.429 14.3187 18 14.9957 18C16.9357 18 18.7097 16.732 19.8277 15.055C19.9013 14.9419 19.9515 14.8153 19.9754 14.6825C19.9993 14.5497 19.9963 14.4135 19.9667 14.2819C19.937 14.1503 19.8813 14.0259 19.8028 13.9162C19.7243 13.8065 19.6247 13.7136 19.5097 13.643C17.7567 12.59 16.6737 11.368 16.2297 10.2L18.0957 8.8C18.3078 8.64087 18.4481 8.40397 18.4856 8.14142C18.5231 7.87887 18.4548 7.61217 18.2957 7.4C18.1365 7.18783 17.8996 7.04756 17.6371 7.01005C17.3745 6.97254 17.1078 7.04087 16.8957 7.2L15.9957 7.875V6C15.9957 4.4087 15.3635 2.88258 14.2383 1.75736C13.1131 0.632141 11.587 0 9.99567 0ZM5.99567 6C5.99567 4.93913 6.4171 3.92172 7.16724 3.17157C7.91739 2.42143 8.9348 2 9.99567 2C11.0565 2 12.074 2.42143 12.8241 3.17157C13.5742 3.92172 13.9957 4.93913 13.9957 6V9C13.9957 11.198 15.4157 13.209 17.5337 14.735C16.7477 15.556 15.8207 16 14.9957 16C13.6177 16 12.7317 16.728 12.0957 17.191C11.4517 17.659 10.9187 18 9.99567 18C9.07267 18 8.53867 17.659 7.89567 17.191C7.26067 16.728 6.37467 16 4.99567 16C4.16967 16 3.24367 15.556 2.45767 14.735C4.57567 13.209 5.99567 11.199 5.99567 9V6Z" fill="#CAD5E2"/>
</svg>
