<svg width="17" height="21" viewBox="0 0 17 21" fill="none" xmlns="http://www.w3.org/2000/svg">
<path d="M14.0967 11.0022C14.0731 8.38851 16.2426 7.11693 16.3418 7.05773C15.1131 5.2712 13.2087 5.0271 12.5395 5.00764C10.9401 4.83977 9.3886 5.96213 8.57384 5.96213C7.74281 5.96213 6.48813 5.02386 5.13588 5.05143C3.39575 5.07819 1.76785 6.08297 0.875017 7.64324C-0.96756 10.8246 0.406648 15.4998 2.17198 18.0713C3.05505 19.3315 4.08692 20.7369 5.43755 20.6874C6.7589 20.6339 7.25248 19.8481 8.84705 19.8481C10.427 19.8481 10.8905 20.6874 12.2679 20.6558C13.6861 20.6339 14.5789 19.3907 15.4311 18.12C16.4515 16.6773 16.8614 15.2549 16.8776 15.1819C16.8451 15.1705 14.1243 14.1341 14.0967 11.0022ZM11.4946 3.31599C12.2053 2.42962 12.6916 1.22373 12.5566 0C11.528 0.0454134 10.2416 0.709585 9.50082 1.57649C8.84542 2.34041 8.25996 3.59253 8.41121 4.77003C9.56668 4.85599 10.7531 4.18858 11.4946 3.31599Z" fill="white"/>
</svg>
