<svg width="18" height="20" viewBox="0 0 18 20" fill="none" xmlns="http://www.w3.org/2000/svg">
<path d="M0.296347 0.261719C0.0740865 0.483979 0 0.854413 0 1.29893V17.6721C0 18.1166 0.148174 18.4871 0.370434 18.7093L0.444521 18.7834L9.63128 9.59666V9.44848L0.296347 0.261719Z" fill="white"/>
<path d="M12.5948 12.7075L9.55722 9.66998V9.44771L12.5948 6.41016L12.6689 6.48424L16.2991 8.55867C17.3363 9.15137 17.3363 10.1145 16.2991 10.7072L12.5948 12.7075Z" fill="white"/>
<path d="M12.6688 12.6341L9.55718 9.52246L0.296326 18.7833C0.66676 19.1537 1.18537 19.1537 1.85215 18.8574L12.6688 12.6341Z" fill="white"/>
<path d="M12.6688 6.41033L1.85215 0.26112C1.18537 -0.109314 0.66676 -0.035227 0.296326 0.335207L9.55718 9.52197L12.6688 6.41033Z" fill="white"/>
<path opacity="0.2" d="M12.5947 12.5596L1.85215 18.6347C1.25945 19.0051 0.740847 18.931 0.370413 18.6347L0.296326 18.7088L0.370413 18.7829C0.740847 19.0792 1.25945 19.1533 1.85215 18.7829L12.5947 12.5596Z" fill="white"/>
<path opacity="0.12" d="M0.296347 18.6351C0.0740865 18.4129 0 18.0424 0 17.5979V17.672C0 18.1165 0.148174 18.487 0.370434 18.7092V18.6351H0.296347ZM16.2991 10.4856L12.5948 12.56L12.6688 12.6341L16.2991 10.5597C16.8177 10.2633 17.04 9.8929 17.04 9.52246C17.04 9.8929 16.7436 10.1892 16.2991 10.4856Z" fill="white"/>
<path opacity="0.25" d="M1.85217 0.335472L16.2991 8.55911C16.7436 8.85546 17.04 9.1518 17.04 9.52224C17.04 9.1518 16.8177 8.78137 16.2991 8.48502L1.85217 0.261385C0.814955 -0.331309 0 0.113211 0 1.2986V1.37269C0 0.261385 0.814955 -0.257222 1.85217 0.335472Z" fill="white"/>
</svg>
