<svg width="24" height="17" viewBox="0 0 24 17" fill="none" xmlns="http://www.w3.org/2000/svg">
<path d="M23.498 2.64C23.222 1.601 22.409 0.782 21.376 0.504C19.505 1.78814e-07 12 0 12 0C12 0 4.495 1.78814e-07 2.623 0.504C1.591 0.782 0.778 1.6 0.502 2.64C0 4.524 0 8.454 0 8.454C0 8.454 0 12.384 0.502 14.268C0.778 15.307 1.591 16.126 2.624 16.404C4.495 16.908 12 16.908 12 16.908C12 16.908 19.505 16.908 21.377 16.404C22.409 16.126 23.222 15.308 23.499 14.268C24 12.384 24 8.454 24 8.454C24 8.454 24 4.524 23.498 2.64ZM9.546 12.023V4.885L15.818 8.454L9.546 12.023Z" fill="#CAD5E2"/>
</svg>
