<svg width="19" height="20" viewBox="0 0 19 20" fill="none" xmlns="http://www.w3.org/2000/svg">
<path d="M17.6819 14.9729C18.0086 14.2296 18.2246 13.4226 18.3073 12.5765L12.9219 13.7521V11.4923L17.6818 10.4541C18.0084 9.71082 18.2244 8.90384 18.3071 8.05775L12.9217 9.23228V1.10533C12.0965 1.58086 11.3636 2.21384 10.7679 2.96048V9.7023L8.61406 10.1721V0C7.78885 0.475362 7.05598 1.10851 6.46024 1.85515V10.6418L1.64106 11.6928C1.31437 12.4361 1.09825 13.2431 1.01536 14.0892L6.46024 12.9016V15.7475L0.624984 17.0201C0.298288 17.7634 0.0823359 18.5704 -0.000396729 19.4165L6.10749 18.0843C6.6047 17.9782 7.03204 17.6765 7.30988 17.2613L8.43003 15.5569V15.5566C8.54631 15.3802 8.61406 15.1676 8.61406 14.9386V12.4318L10.7679 11.9619V16.4816L17.6818 14.9726L17.6819 14.9729Z" fill="#2B7FFF"/>
</svg>
