<svg width="16" height="16" viewBox="0 0 16 16" fill="none" xmlns="http://www.w3.org/2000/svg">
<g clip-path="url(#clip0_4536_444)">
<path d="M14.0813 8.66666C14.59 8.66613 15.0777 8.46382 15.4375 8.10411C15.7972 7.74441 15.9995 7.2567 16 6.748C15.9993 6.21027 15.8718 5.6803 15.6278 5.2011C15.3839 4.7219 15.0304 4.30697 14.596 3.99L10.006 0.652662C9.42371 0.227158 8.72119 -0.00216675 8 -0.00216675C7.27881 -0.00216675 6.57629 0.227158 5.994 0.652662L1.404 3.99C0.969635 4.30697 0.616132 4.7219 0.372187 5.2011C0.128241 5.6803 0.000728883 6.21027 0 6.748C0.000529436 7.2567 0.202844 7.74441 0.562549 8.10411C0.922254 8.46382 1.40997 8.66613 1.91867 8.66666H7.33333V15.3333C7.33333 15.5101 7.40357 15.6797 7.5286 15.8047C7.65362 15.9298 7.82319 16 8 16C8.17681 16 8.34638 15.9298 8.47141 15.8047C8.59643 15.6797 8.66667 15.5101 8.66667 15.3333V8.66666H14.0813ZM10.3333 5.38333C10.5513 5.71095 10.6673 6.09582 10.6667 6.48933V7.33333H8.66667V2.87533L10.3333 5.38333ZM13.812 5.06666C14.0767 5.2599 14.2921 5.51288 14.4406 5.80504C14.5891 6.09719 14.6665 6.42026 14.6667 6.748C14.6665 6.90318 14.6048 7.05196 14.495 7.16169C14.3853 7.27143 14.2365 7.33315 14.0813 7.33333H12V6.48933C12.0006 5.83318 11.8069 5.19153 11.4433 4.64533L9.77667 2.132L13.812 5.06666ZM1.33333 6.748C1.33346 6.42026 1.41092 6.09719 1.55943 5.80504C1.70794 5.51288 1.9233 5.2599 2.188 5.06666L6.226 2.13333L4.55933 4.64666C4.19505 5.19219 4.00043 5.83335 4 6.48933V7.33333H1.91867C1.76348 7.33315 1.6147 7.27143 1.50497 7.16169C1.39524 7.05196 1.33351 6.90318 1.33333 6.748ZM5.33333 7.33333V6.48933C5.33269 6.09582 5.44868 5.71095 5.66667 5.38333L7.33333 2.87533V7.33333H5.33333Z" fill="#CAD5E2"/>
<path d="M2.66667 12.6667H1.33333V10.6667C1.33333 10.4899 1.2631 10.3203 1.13807 10.1953C1.01305 10.0702 0.843478 10 0.666667 10C0.489856 10 0.320286 10.0702 0.195262 10.1953C0.0702379 10.3203 0 10.4899 0 10.6667L0 15.3333C0 15.5101 0.0702379 15.6797 0.195262 15.8047C0.320286 15.9298 0.489856 16 0.666667 16C0.843478 16 1.01305 15.9298 1.13807 15.8047C1.2631 15.6797 1.33333 15.5101 1.33333 15.3333V14H2.66667C2.84348 14 3.01305 14.0702 3.13807 14.1953C3.2631 14.3203 3.33333 14.4899 3.33333 14.6667V15.3333C3.33333 15.5101 3.40357 15.6797 3.5286 15.8047C3.65362 15.9298 3.82319 16 4 16C4.17681 16 4.34638 15.9298 4.4714 15.8047C4.59643 15.6797 4.66667 15.5101 4.66667 15.3333V14.6667C4.66667 14.1362 4.45595 13.6275 4.08088 13.2525C3.70581 12.8774 3.1971 12.6667 2.66667 12.6667Z" fill="#CAD5E2"/>
<path d="M15.3333 10C15.1565 10 14.9869 10.0702 14.8619 10.1953C14.7369 10.3203 14.6666 10.4899 14.6666 10.6667V12.6667H13.3333C12.8029 12.6667 12.2942 12.8774 11.9191 13.2525C11.544 13.6275 11.3333 14.1362 11.3333 14.6667V15.3333C11.3333 15.5101 11.4036 15.6797 11.5286 15.8047C11.6536 15.9298 11.8232 16 12 16C12.1768 16 12.3464 15.9298 12.4714 15.8047C12.5964 15.6797 12.6666 15.5101 12.6666 15.3333V14.6667C12.6666 14.4899 12.7369 14.3203 12.8619 14.1953C12.9869 14.0702 13.1565 14 13.3333 14H14.6666V15.3333C14.6666 15.5101 14.7369 15.6797 14.8619 15.8047C14.9869 15.9298 15.1565 16 15.3333 16C15.5101 16 15.6797 15.9298 15.8047 15.8047C15.9297 15.6797 16 15.5101 16 15.3333V10.6667C16 10.4899 15.9297 10.3203 15.8047 10.1953C15.6797 10.0702 15.5101 10 15.3333 10Z" fill="#CAD5E2"/>
</g>
<defs>
<clipPath id="clip0_4536_444">
<rect width="16" height="16" fill="white"/>
</clipPath>
</defs>
</svg>
