<svg width="655" height="414" viewBox="0 0 655 414" fill="none" xmlns="http://www.w3.org/2000/svg">
<g opacity="0.5">
<path d="M433.91 290.331C433.91 290.331 434.026 290.302 434.026 290.244C434.026 290.186 434.026 290.099 433.939 290.099L-2.62796 170.812C-2.62796 170.812 -2.77292 170.812 -2.77292 170.898C-2.77292 170.956 -2.77292 171.043 -2.68597 171.043L433.881 290.331C433.881 290.331 433.881 290.331 433.91 290.331Z" fill="#052531"/>
</g>
<path d="M-6.74428 224.007C-6.74428 224.007 -6.59934 223.978 -6.57036 223.891L85.2073 60.2214C85.2073 60.2214 85.2073 59.9895 85.1204 59.9315C85.0334 59.8736 84.8884 59.9315 84.8305 60.0185L-6.94722 223.688C-6.94722 223.688 -6.94722 223.92 -6.86026 223.978C-6.83127 223.978 -6.80225 223.978 -6.74428 223.978V224.007Z" fill="#052531"/>
<path d="M270.473 671.502C270.473 671.502 270.589 671.502 270.618 671.444C270.705 671.357 270.705 671.212 270.618 671.154L-6.5993 410.518C-6.5993 410.518 -6.83124 410.431 -6.88922 410.518C-6.9762 410.605 -6.9762 410.75 -6.88922 410.808L270.328 671.444C270.328 671.444 270.415 671.502 270.473 671.502Z" fill="#052531"/>
<path d="M270.473 623.265C270.473 623.265 270.589 623.265 270.647 623.178C270.705 623.091 270.705 622.946 270.618 622.888L-6.59933 400.082C-6.59933 400.082 -6.83124 400.024 -6.88922 400.111C-6.9472 400.198 -6.9472 400.343 -6.86026 400.401L270.357 623.207C270.357 623.207 270.444 623.265 270.502 623.265H270.473Z" fill="#052531"/>
<path d="M659.934 266.88C659.934 266.88 660.108 266.822 660.137 266.735C660.166 266.619 660.137 266.503 660.021 266.474L450.608 188.263C450.608 188.263 450.376 188.263 450.347 188.379C450.318 188.495 450.347 188.611 450.463 188.64L659.847 266.88C659.847 266.88 659.905 266.88 659.934 266.88Z" fill="#052531"/>
<path d="M85.0044 296.855C85.0044 296.855 85.0334 296.855 85.0624 296.855L473.915 188.698C473.915 188.698 474.088 188.553 474.059 188.437C474.03 188.322 473.915 188.264 473.799 188.293L84.9464 296.449C84.9464 296.449 84.7725 296.594 84.8015 296.71C84.8015 296.797 84.9174 296.855 85.0044 296.855Z" fill="#052531"/>
<path d="M-6.74429 322.712C-6.74429 322.712 -6.74429 322.712 -6.71533 322.712L251.543 269.431C251.543 269.431 251.717 269.286 251.717 269.17C251.717 269.054 251.572 268.996 251.457 268.996L-6.80228 322.277C-6.80228 322.277 -6.9762 322.422 -6.9762 322.538C-6.9762 322.625 -6.86026 322.712 -6.77332 322.712H-6.74429Z" fill="#052531"/>
<path d="M659.934 329.96C659.934 329.96 660.137 329.873 660.137 329.786C660.137 329.67 660.079 329.554 659.963 329.554L223.802 270.91C223.802 270.91 223.57 270.968 223.57 271.084C223.57 271.2 223.628 271.316 223.744 271.316L659.905 329.96H659.934Z" fill="#052531"/>
<path d="M211.568 534.328C211.568 534.328 211.597 534.328 211.626 534.328L659.992 411.939C659.992 411.939 660.166 411.794 660.137 411.678C660.108 411.562 659.992 411.504 659.876 411.533L211.51 533.893C211.51 533.893 211.336 534.038 211.365 534.154C211.365 534.241 211.481 534.299 211.568 534.299V534.328Z" fill="#052531"/>
<path d="M245.369 534.329C245.369 534.329 245.514 534.3 245.543 534.213C245.601 534.126 245.543 533.981 245.456 533.923L-6.68626 385.705C-6.68626 385.705 -6.9182 385.705 -6.97617 385.792C-7.03415 385.879 -6.97618 386.023 -6.88921 386.081L245.253 534.3C245.253 534.3 245.311 534.329 245.369 534.329Z" fill="#052531"/>
<path d="M659.934 296.072C659.934 296.072 660.108 296.014 660.137 295.927C660.166 295.811 660.137 295.695 660.021 295.666L42.5072 74.1064C42.5072 74.1064 42.2753 74.1064 42.2463 74.2224C42.2173 74.3384 42.2463 74.4543 42.3623 74.4833L659.847 296.072H659.905H659.934Z" fill="#052531"/>
<path d="M659.934 348.251C659.934 348.251 660.137 348.164 660.137 348.048C660.137 347.932 660.05 347.845 659.934 347.845L435.766 343.323C435.766 343.323 435.563 343.41 435.563 343.526C435.563 343.642 435.65 343.729 435.766 343.729L659.934 348.251Z" fill="#052531"/>
<path d="M-6.74423 352.136L473.857 343.729C473.857 343.729 474.06 343.642 474.06 343.526C474.06 343.41 473.973 343.323 473.857 343.323L-6.74423 351.73C-6.74423 351.73 -6.94717 351.817 -6.94717 351.933C-6.94717 352.049 -6.86017 352.136 -6.74423 352.136Z" fill="#052531"/>
<path d="M462.493 485.598C462.493 485.598 462.667 485.54 462.696 485.453C462.696 485.338 462.667 485.222 462.551 485.193L-6.7153 366.456C-6.7153 366.456 -6.9472 366.485 -6.97617 366.601C-6.97617 366.716 -6.94724 366.832 -6.83127 366.861L462.435 485.598C462.435 485.598 462.464 485.598 462.493 485.598Z" fill="#052531"/>
<g opacity="0.5">
<path d="M-6.74433 218.817C-6.74433 218.817 -6.65739 218.817 -6.6284 218.759L85.1493 55.0896C85.1493 55.0896 85.1493 54.9447 85.0913 54.9157C85.0333 54.8867 84.9464 54.9157 84.9174 54.9736L-6.86031 218.643C-6.86031 218.643 -6.8603 218.788 -6.80232 218.817C-6.80232 218.817 -6.77332 218.817 -6.74433 218.817Z" fill="#052531"/>
<path d="M270.473 666.312C270.473 666.312 270.531 666.312 270.56 666.283C270.618 666.225 270.618 666.167 270.56 666.109L-6.65732 405.474C-6.65732 405.474 -6.77328 405.416 -6.83124 405.474C-6.88922 405.531 -6.88922 405.589 -6.83124 405.647L270.386 666.283C270.386 666.283 270.444 666.312 270.473 666.312Z" fill="#052531"/>
<path d="M270.473 618.047C270.473 618.047 270.56 618.047 270.56 617.989C270.589 617.931 270.589 617.844 270.56 617.815L-6.65726 395.009C-6.65726 395.009 -6.80222 394.98 -6.83121 395.009C-6.86017 395.067 -6.86017 395.154 -6.83121 395.183L270.386 617.989C270.386 617.989 270.444 617.989 270.473 617.989V618.047Z" fill="#052531"/>
<path d="M659.934 261.692C659.934 261.692 660.021 261.663 660.05 261.605C660.05 261.547 660.05 261.46 659.963 261.431L450.55 183.22C450.55 183.22 450.405 183.22 450.376 183.307C450.376 183.365 450.376 183.452 450.463 183.481L659.876 261.692C659.876 261.692 659.905 261.692 659.934 261.692Z" fill="#052531"/>
<path d="M85.0043 291.665C85.0043 291.665 85.0043 291.665 85.0333 291.665L473.885 183.509C473.885 183.509 474.001 183.422 473.972 183.364C473.972 183.306 473.885 183.248 473.827 183.277L84.9753 291.433C84.9753 291.433 84.8594 291.52 84.8884 291.578C84.8884 291.636 84.9463 291.665 85.0043 291.665Z" fill="#052531"/>
<path d="M435.737 480.41C435.737 480.41 435.737 480.41 435.766 480.41L659.963 410.867C659.963 410.867 660.079 410.78 660.05 410.722C660.05 410.664 659.963 410.606 659.905 410.635L435.737 480.178C435.737 480.178 435.621 480.265 435.65 480.323C435.65 480.381 435.708 480.41 435.766 480.41H435.737Z" fill="#052531"/>
<path d="M-6.74426 317.523L251.514 264.242C251.514 264.242 251.63 264.155 251.601 264.097C251.601 264.039 251.514 263.981 251.457 264.01L-6.80225 317.291C-6.80225 317.291 -6.91821 317.378 -6.88922 317.436C-6.88922 317.494 -6.83127 317.523 -6.77328 317.523H-6.74426Z" fill="#052531"/>
<path d="M659.934 324.769C659.934 324.769 660.05 324.711 660.05 324.653C660.05 324.596 660.021 324.509 659.934 324.509L223.772 265.865C223.714 265.865 223.656 265.923 223.656 265.981C223.656 266.039 223.685 266.126 223.772 266.126L659.905 324.769H659.934Z" fill="#052531"/>
<path d="M211.568 529.11C211.568 529.11 211.568 529.11 211.597 529.11L659.963 406.75C659.963 406.75 660.079 406.663 660.05 406.605C660.05 406.547 659.963 406.489 659.905 406.518L211.539 528.879C211.539 528.879 211.423 528.965 211.452 529.023C211.452 529.081 211.51 529.11 211.568 529.11Z" fill="#052531"/>
<path d="M245.369 529.11C245.369 529.11 245.456 529.11 245.485 529.052C245.514 528.994 245.485 528.907 245.427 528.878L-6.71535 380.66C-6.71535 380.66 -6.86029 380.66 -6.88927 380.718C-6.91826 380.776 -6.88927 380.863 -6.83128 380.892L245.311 529.11C245.311 529.11 245.34 529.11 245.369 529.11Z" fill="#052531"/>
<path d="M659.934 290.883C659.934 290.883 660.021 290.854 660.05 290.796C660.05 290.738 660.05 290.651 659.963 290.622L42.4781 69.0913C42.4781 69.0913 42.3333 69.0913 42.3043 69.1783C42.3043 69.2363 42.3043 69.3232 42.3912 69.3522L659.876 290.883C659.876 290.883 659.876 290.883 659.905 290.883H659.934Z" fill="#052531"/>
<path d="M659.934 343.063C659.934 343.063 660.05 343.005 660.05 342.947C660.05 342.889 659.992 342.831 659.934 342.831L435.766 338.309C435.766 338.309 435.65 338.367 435.65 338.425C435.65 338.483 435.708 338.541 435.766 338.541L659.934 343.063Z" fill="#052531"/>
<path d="M-6.74426 346.947L473.857 338.541C473.857 338.541 473.972 338.483 473.972 338.425C473.972 338.367 473.915 338.309 473.857 338.309L-6.74426 346.715C-6.74426 346.715 -6.86023 346.773 -6.86023 346.831C-6.86023 346.889 -6.80222 346.947 -6.74426 346.947Z" fill="#052531"/>
<path d="M462.493 480.41C462.493 480.41 462.609 480.381 462.609 480.323C462.609 480.265 462.609 480.178 462.522 480.178L-6.74435 361.441C-6.74435 361.441 -6.88931 361.441 -6.88931 361.528C-6.88931 361.586 -6.88931 361.673 -6.80234 361.673L462.464 480.41C462.464 480.41 462.464 480.41 462.493 480.41Z" fill="#052531"/>
</g>
<g opacity="0.5">
<path d="M-6.74433 227.832C-6.74433 227.832 -6.65739 227.832 -6.6284 227.774L85.1493 64.1047C85.1493 64.1047 85.1493 63.9598 85.0913 63.9308C85.0333 63.9018 84.9464 63.9308 84.9174 63.9888L-6.86031 227.658C-6.86031 227.658 -6.8603 227.803 -6.80232 227.832C-6.80232 227.832 -6.77332 227.832 -6.74433 227.832Z" fill="#052531"/>
<path d="M270.473 627.091C270.473 627.091 270.56 627.091 270.56 627.033C270.589 626.975 270.589 626.888 270.56 626.859L-6.65726 404.053C-6.65726 404.053 -6.80222 404.024 -6.83121 404.053C-6.86017 404.111 -6.86017 404.198 -6.83121 404.227L270.386 627.033C270.386 627.033 270.444 627.033 270.473 627.033V627.091Z" fill="#052531"/>
<path d="M659.934 270.735C659.934 270.735 660.021 270.706 660.05 270.648C660.05 270.59 660.05 270.503 659.963 270.474L450.55 192.263C450.55 192.263 450.405 192.263 450.376 192.35C450.376 192.408 450.376 192.495 450.463 192.524L659.876 270.706C659.876 270.706 659.905 270.706 659.934 270.706V270.735Z" fill="#052531"/>
<path d="M85.0043 300.681C85.0043 300.681 85.0043 300.681 85.0333 300.681L473.885 192.524C473.885 192.524 474.001 192.437 473.972 192.379C473.972 192.321 473.885 192.263 473.827 192.292L84.9753 300.449C84.9753 300.449 84.8594 300.536 84.8884 300.594C84.8884 300.651 84.9463 300.681 85.0043 300.681Z" fill="#052531"/>
<path d="M-6.74426 326.566L251.514 273.286C251.514 273.286 251.63 273.199 251.601 273.141C251.601 273.083 251.514 273.025 251.457 273.054L-6.80225 326.335C-6.80225 326.335 -6.91821 326.421 -6.88922 326.479C-6.88922 326.537 -6.83127 326.566 -6.77328 326.566H-6.74426Z" fill="#052531"/>
<path d="M659.934 333.785C659.934 333.785 660.05 333.727 660.05 333.669C660.05 333.611 660.021 333.524 659.934 333.524L223.772 274.88C223.714 274.88 223.656 274.938 223.656 274.996C223.656 275.054 223.685 275.141 223.772 275.141L659.905 333.785H659.934Z" fill="#052531"/>
<path d="M245.369 538.154C245.369 538.154 245.456 538.154 245.485 538.096C245.514 538.038 245.485 537.951 245.427 537.922L-6.71535 389.704C-6.71535 389.704 -6.86029 389.704 -6.88927 389.762C-6.91826 389.82 -6.88927 389.907 -6.83128 389.936L245.311 538.154C245.311 538.154 245.34 538.154 245.369 538.154Z" fill="#052531"/>
<path d="M659.934 299.927C659.934 299.927 660.021 299.898 660.05 299.84C660.05 299.782 660.05 299.695 659.963 299.666L42.4781 78.1064C42.4781 78.1064 42.3333 78.1064 42.3043 78.1934C42.3043 78.2514 42.3043 78.3384 42.3912 78.3673L659.876 299.898C659.876 299.898 659.876 299.898 659.905 299.898L659.934 299.927Z" fill="#052531"/>
<path d="M659.934 352.077C659.934 352.077 660.05 352.019 660.05 351.961C660.05 351.903 659.992 351.845 659.934 351.845L435.766 347.323C435.766 347.323 435.65 347.381 435.65 347.439C435.65 347.497 435.708 347.555 435.766 347.555L659.934 352.077Z" fill="#052531"/>
<path d="M-6.74426 355.962L473.857 347.555C473.857 347.555 473.972 347.497 473.972 347.439C473.972 347.381 473.915 347.323 473.857 347.323L-6.74426 355.73C-6.74426 355.73 -6.86023 355.788 -6.86023 355.846C-6.86023 355.904 -6.80222 355.962 -6.74426 355.962Z" fill="#052531"/>
<path d="M462.493 489.425C462.493 489.425 462.609 489.396 462.609 489.338C462.609 489.28 462.609 489.193 462.522 489.193L-6.74435 370.456C-6.74435 370.456 -6.88931 370.456 -6.88931 370.543C-6.88931 370.601 -6.88931 370.688 -6.80234 370.688L462.464 489.425C462.464 489.425 462.464 489.425 462.493 489.425Z" fill="#052531"/>
</g>
<path d="M646.193 462.785L652.774 459.48V264.271L646.193 261.807V462.785ZM652.339 459.219L646.599 462.118V262.416L652.339 264.561V459.219Z" fill="#052531"/>
<path d="M646.396 462.64C646.396 462.64 646.57 462.582 646.599 462.495C646.628 462.379 646.599 462.263 646.454 462.234L639.874 460.263V263.692L646.425 262.3C646.425 262.3 646.599 262.155 646.599 262.039C646.599 261.923 646.454 261.865 646.338 261.865L639.468 263.344V460.582L646.338 462.64C646.338 462.64 646.367 462.64 646.396 462.64Z" fill="#052531"/>
<path d="M447.912 481.918V195.482L433.707 199.424V478.323L447.912 481.918ZM447.477 196.033V481.367L434.113 477.975V199.714L447.477 196.004V196.033Z" fill="#052531"/>
<path d="M447.477 481.918L461.131 477.714V199.685L447.477 195.482V481.947V481.918ZM460.725 477.395L447.912 481.338V196.033L460.725 199.975V477.395Z" fill="#052531"/>
<path d="M372.803 490.324L383.238 487.483V293.347L372.803 291.984V490.324ZM382.833 487.164L373.237 489.773V292.448L382.833 293.695V487.135V487.164Z" fill="#052531"/>
<path d="M373.034 490.266C373.034 490.266 373.208 490.208 373.237 490.121C373.266 490.005 373.237 489.889 373.121 489.86L363.091 486.236V293.984L373.092 292.419C373.092 292.419 373.295 292.303 373.266 292.187C373.266 292.071 373.15 291.984 373.034 292.013L362.686 293.636V486.555L373.005 490.266H373.063H373.034Z" fill="#052531"/>
<path d="M234.44 528.096L249.05 524.124V274.301H248.877L234.469 272.446V528.096H234.44ZM248.616 523.776L234.846 527.545V272.91L248.616 274.649V523.776Z" fill="#052531"/>
<path d="M234.875 528.184V272.418L221.569 275.201V520.386L221.685 520.444L234.875 528.184ZM234.44 272.94V527.459L221.975 520.125V275.52L234.44 272.911V272.94Z" fill="#052531"/>
<path d="M71.6697 484.961V83.0352L63.147 98.2541V476.96L71.6697 484.99V484.961ZM70.829 86.2529V483.019L63.9877 476.583V98.4571L70.829 86.2529Z" fill="#052531"/>
<path d="M70.829 484.468L83.671 482.7V88.659L70.829 84.0498V484.468ZM82.8593 481.975L71.6987 483.512V85.2383L82.8593 89.2388V481.946V481.975Z" fill="#052531"/>
<path d="M9.80817 426.491V193.8L4.79316 202.758V421.737L4.85115 421.795L9.80817 426.462V426.491ZM9.37336 195.424V425.535L5.199 421.592V202.903L9.37336 195.424Z" fill="#052531"/>
<path d="M9.60525 426.23H17.0263V196.902L9.66324 194.409C9.66324 194.409 9.4313 194.409 9.40231 194.554C9.37332 194.67 9.40232 194.786 9.54726 194.815L16.6205 197.192V425.795H9.60525C9.60525 425.795 9.40231 425.882 9.40231 425.998C9.40231 426.114 9.4893 426.201 9.60525 426.201V426.23Z" fill="#052531"/>
<path d="M280.822 455.827L291.635 453.856V163.507L280.822 159.623V455.827ZM291.229 453.537L281.257 455.335V160.231L291.229 163.797V453.508V453.537Z" fill="#052531"/>
<path d="M281.257 455.915V159.565L270.241 165.479V450.755L281.257 455.915ZM280.822 160.29V455.277L270.647 450.494V165.74L280.822 160.29Z" fill="#052531"/>
<path d="M61.1758 485.598L659.963 403.183C659.963 403.183 660.166 403.067 660.137 402.952C660.137 402.836 660.021 402.749 659.905 402.778L61.1469 485.163C61.1469 485.163 60.944 485.279 60.973 485.395C60.973 485.511 61.0889 485.569 61.1758 485.569V485.598Z" fill="#052531"/>
<path d="M16.8234 468.784C16.8234 468.784 16.8234 468.784 16.8524 468.784L116.486 458.494V297.027C116.486 296.796 116.312 296.622 116.08 296.622C115.848 296.622 115.645 296.796 115.645 297.027V457.711L16.7654 467.944C16.5335 467.944 16.3596 468.176 16.3886 468.408C16.3886 468.611 16.5915 468.784 16.7944 468.784H16.8234Z" fill="#052531"/>
<path d="M239.571 166.406C239.745 166.406 239.919 166.29 239.977 166.116C240.064 165.885 239.919 165.653 239.716 165.595L128.661 128.692C128.458 128.605 128.197 128.75 128.139 128.953C128.052 129.185 128.197 129.417 128.4 129.475L239.455 166.377C239.455 166.377 239.542 166.377 239.6 166.377L239.571 166.406Z" fill="#052531"/>
<path d="M232.585 273.084C232.817 273.084 233.02 272.91 233.02 272.678V158.435C233.02 158.203 232.846 158.029 232.585 158.029C232.324 158.029 232.15 158.203 232.15 158.435V272.678C232.15 272.91 232.324 273.084 232.585 273.084Z" fill="#052531"/>
<path d="M209.887 174L210.032 173.942L232.73 164.028C232.933 163.941 233.049 163.68 232.962 163.477C232.875 163.275 232.614 163.159 232.411 163.275L209.858 173.102L133.995 149.505C133.763 149.447 133.531 149.563 133.473 149.795C133.415 150.027 133.531 150.259 133.763 150.317L209.916 174H209.887Z" fill="#052531"/>
<path d="M209.858 276.91C210.09 276.91 210.264 276.736 210.264 276.504V173.566C210.264 173.334 210.09 173.16 209.858 173.16C209.626 173.16 209.423 173.334 209.423 173.566V276.504C209.423 276.736 209.597 276.91 209.858 276.91Z" fill="#052531"/>
<path d="M201.828 279.867C202.06 279.867 202.263 279.693 202.263 279.461V178.929L201.973 178.842L134.024 158.028C133.792 157.97 133.56 158.086 133.502 158.318C133.444 158.55 133.56 158.782 133.792 158.84L201.451 179.566V279.461C201.451 279.693 201.625 279.867 201.886 279.867H201.828Z" fill="#052531"/>
<path d="M196.204 183.015L202.031 179.624C202.234 179.508 202.292 179.247 202.176 179.044C202.06 178.841 201.799 178.783 201.596 178.899L196.088 182.117L133.966 163.245C133.734 163.187 133.502 163.303 133.444 163.535C133.386 163.767 133.502 163.999 133.734 164.057L196.204 183.044V183.015Z" fill="#052531"/>
<path d="M196.146 281.055C196.378 281.055 196.552 280.881 196.552 280.65V182.552C196.552 182.32 196.378 182.146 196.146 182.146C195.914 182.146 195.712 182.32 195.712 182.552V280.65C195.712 280.881 195.885 281.055 196.146 281.055Z" fill="#052531"/>
<path d="M160.317 288.448C160.549 288.448 160.722 288.274 160.722 288.042V166.551C160.722 166.319 160.549 166.145 160.317 166.145C160.085 166.145 159.882 166.319 159.882 166.551V288.042C159.882 288.274 160.056 288.448 160.317 288.448Z" fill="#052531"/>
<path d="M150.924 290.39C151.156 290.39 151.359 290.217 151.359 289.985V169.016L154.751 165.914V289.115C154.751 289.347 154.925 289.521 155.157 289.521C155.389 289.521 155.591 289.347 155.591 289.115V164.957C155.591 164.783 155.505 164.638 155.331 164.58C155.186 164.522 155.012 164.551 154.867 164.667L150.634 168.523C150.634 168.523 150.489 168.726 150.489 168.842V289.985C150.489 290.217 150.663 290.39 150.895 290.39H150.924Z" fill="#052531"/>
<path d="M23.2588 288.332L53.5809 272.91V165.768L23.2588 205.656V288.332ZM52.7402 272.417L24.0995 286.969V205.946L52.7402 168.261V272.388V272.417Z" fill="#052531"/>
<path d="M23.6647 206.236H32.2164L32.3323 206.12L53.465 184.031C53.6389 183.857 53.6099 183.596 53.465 183.451C53.291 183.277 53.0301 183.306 52.8851 183.451L31.8685 205.396H23.6937C23.4618 205.396 23.2589 205.57 23.2589 205.802C23.2589 206.033 23.4328 206.207 23.6937 206.207L23.6647 206.236Z" fill="#052531"/>
<path d="M32.0424 283.577C32.2743 283.577 32.4772 283.403 32.4772 283.171V205.83C32.4772 205.598 32.3033 205.424 32.0424 205.424C31.7815 205.424 31.6075 205.598 31.6075 205.83V283.171C31.6075 283.403 31.7815 283.577 32.0424 283.577Z" fill="#052531"/>
<path d="M34.8833 282.389C35.1152 282.389 35.3181 282.215 35.3181 281.983V207.888L53.4939 188.785C53.6388 188.611 53.6388 188.35 53.4939 188.205C53.32 188.031 53.0591 188.06 52.9141 188.205L34.5064 207.57V281.983C34.5064 282.215 34.6803 282.389 34.9122 282.389H34.8833Z" fill="#052531"/>
<path d="M34.8832 208.12H37.3472L37.4632 208.004L53.4649 192.64C53.6388 192.466 53.6388 192.206 53.4649 192.061C53.291 191.887 53.03 191.887 52.8851 192.061L36.9994 207.309H34.8832C34.6513 207.309 34.4774 207.483 34.4774 207.714C34.4774 207.946 34.6513 208.12 34.8832 208.12Z" fill="#052531"/>
<path d="M37.1733 281.23C37.4052 281.23 37.5792 281.056 37.5792 280.824V207.744C37.5792 207.512 37.4052 207.338 37.1733 207.338C36.9414 207.338 36.7385 207.512 36.7385 207.744V280.824C36.7385 281.056 36.9124 281.23 37.1733 281.23Z" fill="#052531"/>
<path d="M262.096 521.282C262.327 521.282 262.501 521.108 262.501 520.876V308.246L330.74 315.377V485.713L355.41 495.627V317.116H355.033L261.661 307.318V520.905C261.661 521.137 261.835 521.311 262.096 521.311V521.282ZM354.569 317.841V494.352L331.581 485.105V315.435L354.569 317.841Z" fill="#052531"/>
<path d="M299.664 377.558H323.841V333.467L299.664 331.496V377.558ZM323 376.718H300.505V332.423L323 334.25V376.718Z" fill="#052531"/>
<path d="M265.922 377.559H295.461V331.583L265.922 329.322V377.588V377.559ZM294.62 376.718H266.762V330.22L294.62 332.366V376.747V376.718Z" fill="#052531"/>
<path d="M299.664 424.81L323.841 423.186V382.312H299.664V424.81ZM323 422.404L300.505 423.911V383.153H323V422.404Z" fill="#052531"/>
<path d="M265.922 426.463L295.461 424.752V382.284L265.922 382.922V426.434V426.463ZM294.62 423.97L266.762 425.564V383.763L294.62 383.154V423.97Z" fill="#052531"/>
<path d="M125.733 350.019H126.168L207.655 348.598V307.29L207.191 307.348L125.762 317.58V350.048L125.733 350.019ZM206.785 347.758L126.545 349.149V318.276L206.785 308.217V347.758Z" fill="#052531"/>
<path d="M135.242 349.874C135.473 349.874 135.676 349.7 135.676 349.468V316.827C135.676 316.595 135.502 316.421 135.242 316.421C134.981 316.421 134.807 316.595 134.807 316.827V349.468C134.807 349.7 134.981 349.874 135.242 349.874Z" fill="#052531"/>
<path d="M169.506 349.266C169.738 349.266 169.941 349.092 169.941 348.86V312.508C169.941 312.276 169.767 312.103 169.506 312.103C169.245 312.103 169.1 312.276 169.1 312.508V348.86C169.1 349.092 169.274 349.266 169.506 349.266Z" fill="#052531"/>
<path d="M162.868 349.266C163.1 349.266 163.302 349.092 163.302 348.86V313.349C163.302 313.117 163.129 312.943 162.868 312.943C162.607 312.943 162.433 313.117 162.433 313.349V348.86C162.433 349.092 162.607 349.266 162.868 349.266Z" fill="#052531"/>
<path d="M174.26 349.208C174.492 349.208 174.695 349.034 174.695 348.802V312.508C174.695 312.276 174.521 312.103 174.26 312.103C173.999 312.103 173.825 312.276 173.825 312.508V348.802C173.825 349.034 173.999 349.208 174.26 349.208Z" fill="#052531"/>
<path d="M23.2588 351.816L53.5809 351.294V326.451L23.2588 330.741V351.845V351.816ZM52.7402 350.453L24.0995 350.946V331.437L52.7402 327.378V350.453Z" fill="#052531"/>
<path d="M28.2158 351.73C28.4477 351.73 28.6506 351.556 28.6506 351.324V330.452C28.6506 330.22 28.4767 330.046 28.2158 330.046C27.9549 330.046 27.781 330.22 27.781 330.452V351.324C27.781 351.556 27.9549 351.73 28.2158 351.73Z" fill="#052531"/>
<path d="M38.4199 351.556C38.6518 351.556 38.8257 351.382 38.8257 351.15V329.003C38.8257 328.771 38.6518 328.597 38.4199 328.597C38.188 328.597 37.9851 328.771 37.9851 329.003V351.15C37.9851 351.382 38.159 351.556 38.4199 351.556Z" fill="#052531"/>
<path d="M42.4493 351.497C42.6812 351.497 42.8841 351.324 42.8841 351.092V328.712C42.8841 328.481 42.7102 328.307 42.4493 328.307C42.1884 328.307 42.0144 328.481 42.0144 328.712V351.092C42.0144 351.324 42.1884 351.497 42.4493 351.497Z" fill="#052531"/>
<path d="M44.9713 351.439C45.2032 351.439 45.4061 351.265 45.4061 351.033V328.074C45.4061 327.842 45.2322 327.668 44.9713 327.668C44.7104 327.668 44.5654 327.842 44.5654 328.074V351.033C44.5654 351.265 44.7393 351.439 44.9713 351.439Z" fill="#052531"/>
<path d="M257.921 614.047L258.385 613.844L653.411 439.507V259.749C653.411 259.285 653.035 258.908 652.571 258.908C652.107 258.908 651.73 259.285 651.73 259.749V438.434L258.182 612.104L73.3801 463.364L115.906 458.958L235.513 529.284V273.634L424.112 298.883V475.887C424.112 476.351 424.489 476.728 424.953 476.728C425.417 476.728 425.794 476.351 425.794 475.887V297.434L425.069 297.347L233.832 271.75V526.385L116.283 457.277L69.1477 462.147L70.7421 463.422L257.921 614.076V614.047Z" fill="#052531"/>
<path d="M71.2638 307.261C71.7277 307.261 72.1045 306.884 72.1045 306.42V74.3089C72.1045 73.8451 71.7277 73.4683 71.2638 73.4683C70.8 73.4683 70.4232 73.8451 70.4232 74.3089V306.42C70.4232 306.884 70.8 307.261 71.2638 307.261Z" fill="#052531"/>
<path d="M355.004 495.801C355.004 495.801 355.149 495.801 355.236 495.772L424.953 476.756L448.55 482.728V344.887H461.334V192.204C461.334 191.741 460.957 191.364 460.493 191.364C460.029 191.364 459.652 191.741 459.652 192.204V343.206H446.869V480.582L424.953 475.046L354.801 494.178C354.366 494.294 354.105 494.758 354.221 495.222C354.337 495.598 354.656 495.83 355.033 495.83L355.004 495.801Z" fill="#052531"/>
<path d="M447.68 482.467C447.68 482.467 447.854 482.467 447.941 482.438L590.825 438.144L640.512 445.13V347.207L590.854 345.786V346.656L589.927 436.665L447.448 480.815C447.013 480.96 446.752 481.423 446.897 481.858C447.013 482.206 447.332 482.438 447.709 482.438L447.68 482.467ZM638.83 348.859V443.217L591.608 436.549L592.507 347.525L638.83 348.859Z" fill="#052531"/>
<path d="M258.182 660.573C258.414 660.573 258.617 660.486 258.791 660.312C259.109 659.964 259.08 659.443 258.762 659.124L5.83667 421.302V203.047L71.6406 85.6726L290.591 164.231V240.326L460.435 193.075L652.252 265.199C652.687 265.372 653.18 265.141 653.324 264.706C653.498 264.271 653.267 263.778 652.832 263.633L460.493 191.336L460.232 191.423L292.243 238.152V163.101L291.693 162.898L70.858 83.6724L4.12634 202.67V422.084L4.38727 422.345L257.573 660.399C257.747 660.544 257.95 660.631 258.153 660.631L258.182 660.573Z" fill="#052531"/>
<path d="M291.432 281.055C291.896 281.055 292.272 280.679 292.272 280.215V239.225C292.272 238.761 291.896 238.384 291.432 238.384C290.968 238.384 290.591 238.761 290.591 239.225V280.215C290.591 280.679 290.968 281.055 291.432 281.055Z" fill="#052531"/>
<path d="M71.2638 463.568C71.7277 463.568 72.1045 463.191 72.1045 462.727V306.421C72.1045 305.957 71.7277 305.58 71.2638 305.58C70.8 305.58 70.4232 305.957 70.4232 306.421V462.727C70.4232 463.191 70.8 463.568 71.2638 463.568Z" fill="#052531"/>
<path d="M116.08 458.929C116.544 458.929 116.921 458.552 116.921 458.088L117.588 297.694L234.817 273.489C235.281 273.402 235.571 272.938 235.455 272.503C235.368 272.04 234.904 271.75 234.469 271.837L115.906 296.332V297.028L115.239 458.117C115.239 458.581 115.616 458.958 116.08 458.958V458.929Z" fill="#052531"/>
<path d="M304.39 296.39L423.822 273.025V227.89L423.301 228.035L304.419 258.618V296.419L304.39 296.39ZM422.982 272.33L305.259 295.375V259.256L422.982 228.992V272.359V272.33Z" fill="#052531"/>
<path d="M313.898 294.506C314.13 294.506 314.304 294.332 314.333 294.1L314.825 260.995L304.94 258.502C304.708 258.444 304.477 258.589 304.419 258.792C304.361 259.024 304.506 259.256 304.737 259.314L313.985 261.633L313.492 294.071C313.492 294.303 313.666 294.506 313.898 294.506Z" fill="#052531"/>
<path d="M314.391 261.721C314.391 261.721 314.449 261.721 314.507 261.721L423.532 234.617C423.764 234.559 423.88 234.327 423.851 234.095C423.793 233.863 423.561 233.747 423.33 233.776L314.304 260.88C314.072 260.938 313.956 261.17 313.985 261.402C314.043 261.605 314.217 261.721 314.391 261.721Z" fill="#052531"/>
<path d="M317.666 293.781C317.898 293.781 318.072 293.607 318.072 293.375V263.72L423.474 237.775C423.706 237.717 423.851 237.485 423.793 237.254C423.735 237.022 423.503 236.877 423.272 236.935L317.203 263.024V293.346C317.203 293.578 317.376 293.752 317.637 293.752L317.666 293.781Z" fill="#052531"/>
<path d="M320.275 293.26C320.507 293.26 320.681 293.086 320.681 292.854V262.967H317.637C317.405 262.967 317.203 263.141 317.203 263.373C317.203 263.605 317.376 263.778 317.637 263.778H319.84V292.825C319.84 293.057 320.014 293.231 320.275 293.231V293.26Z" fill="#052531"/>
<path d="M342.307 288.968C342.539 288.968 342.741 288.794 342.741 288.563V257.342C342.741 257.11 342.567 256.936 342.307 256.936C342.046 256.936 341.901 257.11 341.901 257.342V288.563C341.901 288.794 342.075 288.968 342.307 288.968Z" fill="#052531"/>
<path d="M345.959 287.955C346.191 287.955 346.365 287.781 346.365 287.549V256.415C346.365 256.183 346.191 256.009 345.959 256.009C345.727 256.009 345.524 256.183 345.524 256.415V287.549C345.524 287.781 345.698 287.955 345.959 287.955Z" fill="#052531"/>
<path d="M348.51 287.839C348.742 287.839 348.945 287.665 348.945 287.433V256.415C348.945 256.183 348.771 256.009 348.51 256.009C348.249 256.009 348.075 256.183 348.075 256.415V287.433C348.075 287.665 348.249 287.839 348.51 287.839Z" fill="#052531"/>
<path d="M383.035 280.997C383.267 280.997 383.47 280.823 383.47 280.591V247.776C383.47 247.545 383.296 247.371 383.035 247.371C382.775 247.371 382.601 247.545 382.601 247.776V280.591C382.601 280.823 382.775 280.997 383.035 280.997Z" fill="#052531"/>
<path d="M388.079 280.013C388.311 280.013 388.514 279.839 388.514 279.607V246.067C388.514 245.835 388.34 245.661 388.079 245.661C387.819 245.661 387.645 245.835 387.645 246.067V279.607C387.645 279.839 387.819 280.013 388.079 280.013Z" fill="#052531"/>
<path d="M391.065 279.287C391.297 279.287 391.5 279.113 391.5 278.881V245.313C391.5 245.081 391.326 244.907 391.065 244.907C390.804 244.907 390.63 245.081 390.63 245.313V278.881C390.63 279.113 390.804 279.287 391.065 279.287Z" fill="#052531"/>
<path d="M591.695 347.526C592.159 347.526 592.536 347.149 592.536 346.715C592.536 346.251 592.188 345.874 591.724 345.845L460.522 343.207C460.058 343.207 459.681 343.584 459.681 344.019C459.681 344.483 460.029 344.859 460.493 344.888L591.695 347.526Z" fill="#052531"/>
<path d="M495.308 308.043C495.54 308.043 495.743 307.869 495.743 307.637V236.818C495.743 236.587 495.569 236.413 495.308 236.413C495.047 236.413 494.873 236.587 494.873 236.818V307.637C494.873 307.869 495.047 308.043 495.308 308.043Z" fill="#052531"/>
<path d="M547.835 315.088C548.067 315.088 548.27 314.914 548.27 314.682V255.661C548.27 255.429 548.096 255.255 547.835 255.255C547.574 255.255 547.429 255.429 547.429 255.661V314.682C547.429 314.914 547.603 315.088 547.835 315.088Z" fill="#052531"/>
<path d="M579.723 319.379C579.955 319.379 580.128 319.205 580.128 318.973V267.084C580.128 266.852 579.955 266.678 579.723 266.678C579.491 266.678 579.288 266.852 579.288 267.084V318.973C579.288 319.205 579.462 319.379 579.723 319.379Z" fill="#052531"/>
<path d="M622.075 326.394C622.307 326.394 622.51 326.22 622.51 325.988V282.302C622.51 282.07 622.336 281.896 622.075 281.896C621.814 281.896 621.64 282.07 621.64 282.302V325.988C621.64 326.22 621.814 326.394 622.075 326.394Z" fill="#052531"/>
<path d="M615.784 324.248C616.016 324.248 616.219 324.074 616.219 323.842V283.548L622.162 282.736C622.394 282.707 622.539 282.505 622.51 282.273C622.481 282.041 622.278 281.867 622.046 281.925L615.378 282.852V323.871C615.378 324.103 615.552 324.277 615.813 324.277L615.784 324.248Z" fill="#052531"/>
<path d="M615.784 283.577C615.958 283.577 616.132 283.461 616.19 283.287C616.248 283.055 616.132 282.823 615.929 282.765L579.868 271.17C579.636 271.112 579.404 271.228 579.346 271.431C579.288 271.663 579.404 271.894 579.607 271.952L615.668 283.548C615.668 283.548 615.755 283.548 615.784 283.548V283.577Z" fill="#052531"/>
<path d="M539.284 313.784C539.516 313.784 539.718 313.61 539.718 313.378V257.053L547.893 256.068C548.125 256.068 548.299 255.836 548.27 255.604C548.27 255.372 548.038 255.227 547.806 255.227L538.907 256.3V313.349C538.907 313.581 539.081 313.755 539.342 313.755L539.284 313.784Z" fill="#052531"/>
<path d="M539.284 257.081C539.458 257.081 539.631 256.965 539.689 256.791C539.776 256.559 539.66 256.327 539.429 256.269L495.424 241.137C495.192 241.05 494.96 241.166 494.902 241.398C494.815 241.63 494.931 241.862 495.163 241.92L539.168 257.052C539.168 257.052 539.255 257.052 539.313 257.052L539.284 257.081Z" fill="#052531"/>
<path d="M536.617 313.58C536.849 313.58 537.051 313.406 537.051 313.174V258.038L495.453 244.066C495.221 243.979 494.989 244.124 494.931 244.327C494.844 244.559 494.989 244.791 495.192 244.848L536.211 258.618V313.174C536.211 313.406 536.385 313.58 536.646 313.58H536.617Z" fill="#052531"/>
<path d="M513.136 310.42C513.368 310.42 513.542 310.246 513.542 310.014V250.443C513.542 250.211 513.368 250.037 513.136 250.037C512.904 250.037 512.701 250.211 512.701 250.443V310.014C512.701 310.246 512.875 310.42 513.136 310.42Z" fill="#052531"/>
<path d="M509.715 309.986C509.947 309.986 510.15 309.812 510.15 309.58V248.646L506.875 250.182V309.232C506.875 309.464 507.048 309.638 507.309 309.638C507.57 309.638 507.744 309.464 507.744 309.232V250.704L509.339 249.95V309.551C509.339 309.783 509.512 309.957 509.773 309.957L509.715 309.986Z" fill="#052531"/>
<path d="M534.732 313.348C534.964 313.348 535.167 313.175 535.167 312.943V259.43L536.791 258.763C536.994 258.676 537.11 258.415 537.023 258.212C536.936 258.009 536.675 257.893 536.472 257.98L534.327 258.879V312.972C534.327 313.204 534.501 313.377 534.732 313.377V313.348Z" fill="#052531"/>
<path d="M534.732 259.546C534.906 259.546 535.08 259.43 535.138 259.256C535.196 259.025 535.08 258.793 534.877 258.735L513.281 251.806C513.049 251.748 512.817 251.864 512.759 252.067C512.701 252.299 512.817 252.531 513.02 252.589L534.616 259.517C534.616 259.517 534.703 259.517 534.732 259.517V259.546Z" fill="#052531"/>
<path d="M507.28 250.849C507.454 250.849 507.628 250.733 507.686 250.559C507.773 250.328 507.657 250.096 507.425 250.038L495.453 245.95C495.221 245.863 494.989 245.979 494.931 246.211C494.844 246.443 494.96 246.675 495.192 246.733L507.164 250.82C507.164 250.82 507.251 250.82 507.309 250.82L507.28 250.849Z" fill="#052531"/>
<path d="M613.552 323.93C613.784 323.93 613.987 323.756 613.987 323.524V284.187L613.697 284.1L579.868 274.012C579.636 273.954 579.404 274.07 579.346 274.302C579.288 274.534 579.404 274.766 579.636 274.824L613.146 284.825V323.524C613.146 323.756 613.32 323.93 613.581 323.93H613.552Z" fill="#052531"/>
<path d="M596.623 321.668C596.855 321.668 597.058 321.494 597.058 321.262V279.461C597.058 279.229 596.884 279.055 596.623 279.055C596.362 279.055 596.188 279.229 596.188 279.461V321.262C596.188 321.494 596.362 321.668 596.623 321.668Z" fill="#052531"/>
<path d="M594.391 321.35C594.623 321.35 594.826 321.176 594.826 320.944V278.157L592.362 279.171V320.712C592.362 320.944 592.536 321.118 592.796 321.118C593.057 321.118 593.231 320.944 593.231 320.712V279.722L594.014 279.403V320.944C594.014 321.176 594.188 321.35 594.449 321.35H594.391Z" fill="#052531"/>
<path d="M612.016 323.726C612.248 323.726 612.451 323.553 612.451 323.321V285.346L613.697 284.882C613.929 284.795 614.016 284.563 613.958 284.331C613.871 284.099 613.639 284.012 613.407 284.07L611.61 284.737V323.292C611.61 323.524 611.784 323.697 612.016 323.697V323.726Z" fill="#052531"/>
<path d="M612.016 285.461C612.19 285.461 612.364 285.345 612.422 285.171C612.48 284.939 612.364 284.708 612.132 284.65L596.739 280.156C596.507 280.098 596.275 280.214 596.217 280.446C596.159 280.678 596.275 280.91 596.507 280.968L611.9 285.461C611.9 285.461 611.987 285.461 612.016 285.461Z" fill="#052531"/>
<path d="M592.739 279.866C592.912 279.866 593.086 279.751 593.144 279.577C593.202 279.345 593.086 279.113 592.854 279.055L579.839 275.199C579.607 275.141 579.375 275.257 579.317 275.489C579.259 275.721 579.375 275.953 579.607 276.011L592.623 279.866C592.623 279.866 592.71 279.866 592.739 279.866Z" fill="#052531"/>
<path d="M646.396 524.385C646.396 524.385 646.512 524.327 646.512 524.269V207.714C646.512 207.714 646.454 207.598 646.396 207.598C646.338 207.598 646.28 207.656 646.28 207.714V524.269C646.28 524.269 646.338 524.385 646.396 524.385Z" fill="#052531"/>
<path d="M460.928 620.801C460.928 620.801 461.044 620.743 461.044 620.685V148.491C461.044 148.491 460.986 148.375 460.928 148.375C460.87 148.375 460.812 148.433 460.812 148.491V620.656C460.812 620.656 460.87 620.772 460.928 620.772V620.801Z" fill="#052531"/>
<path d="M447.68 634.512C447.68 634.512 447.796 634.454 447.796 634.396V153.708C447.796 153.708 447.738 153.592 447.68 153.592C447.622 153.592 447.564 153.65 447.564 153.708V634.396C447.564 634.396 447.622 634.512 447.68 634.512Z" fill="#052531"/>
<path d="M291.982 679.85C291.982 679.85 292.098 679.792 292.098 679.734V143.765C292.098 143.765 292.04 143.649 291.982 143.649C291.925 143.649 291.867 143.707 291.867 143.765V679.705C291.867 679.705 291.925 679.821 291.982 679.821V679.85Z" fill="#052531"/>
<path d="M71.2639 533.43C71.2639 533.43 71.3798 533.372 71.3798 533.314V49.4377C71.3798 49.4377 71.3219 49.3218 71.2639 49.3218C71.2059 49.3218 71.1479 49.3798 71.1479 49.4377V533.314C71.1479 533.314 71.2059 533.43 71.2639 533.43Z" fill="#052531"/>
<path d="M373.034 513.63C373.034 513.63 373.15 513.572 373.15 513.514V111.067C373.15 111.067 373.092 110.951 373.034 110.951C372.976 110.951 372.918 111.009 372.918 111.067V513.514C372.918 513.514 372.976 513.63 373.034 513.63Z" fill="#052531"/>
<path d="M4.99606 469.771C4.99606 469.771 5.112 469.713 5.112 469.655V157.564C5.112 157.564 5.05404 157.448 4.99606 157.448C4.93809 157.448 4.88009 157.506 4.88009 157.564V469.626C4.88009 469.626 4.93809 469.742 4.99606 469.742V469.771Z" fill="#052531"/>
<path d="M234.208 547.286C234.208 547.286 234.324 547.228 234.324 547.17V235.109C234.324 235.109 234.266 234.993 234.208 234.993C234.15 234.993 234.092 235.051 234.092 235.109V547.17C234.092 547.17 234.15 547.286 234.208 547.286Z" fill="#052531"/>
<path d="M659.934 244.617C659.934 244.617 660.021 244.588 660.05 244.53C660.05 244.472 660.05 244.385 659.992 244.356L45.0002 0.0117188C45.0002 0.0117188 44.8553 0.0117187 44.8263 0.0696958C44.8263 0.127673 44.8263 0.214639 44.8843 0.243627L659.876 244.588C659.876 244.588 659.905 244.588 659.934 244.588V244.617Z" fill="#052531"/>
<path d="M-6.74432 194.756C-6.74432 194.756 -6.65738 194.756 -6.62839 194.698L105.151 0.185304C105.151 0.185304 105.151 0.0403609 105.093 0.0113723C105.035 -0.0176162 104.948 0.0113723 104.919 0.0693493L-6.88927 194.582C-6.88927 194.582 -6.88927 194.727 -6.83128 194.756C-6.83128 194.756 -6.80233 194.756 -6.77335 194.756H-6.74432Z" fill="#052531"/>
<path d="M133.879 293.521C134.111 293.521 134.285 293.347 134.285 293.115V126.054C134.285 125.822 134.111 125.648 133.879 125.648C133.647 125.648 133.444 125.822 133.444 126.054V293.115C133.444 293.347 133.618 293.521 133.879 293.521Z" fill="#052531"/>
<path d="M460.522 431.072L578.998 414.548V355.412H460.522V431.072ZM578.128 413.823L461.333 430.115V356.252H578.128V413.823Z" fill="#052531"/>
<path d="M578.563 414.606C578.766 414.606 578.94 414.461 578.969 414.258C578.998 414.026 578.853 413.824 578.621 413.766L571.519 412.635V355.817C571.519 355.586 571.345 355.412 571.084 355.412C570.823 355.412 570.649 355.586 570.649 355.817V413.331L578.447 414.548H578.505L578.563 414.606Z" fill="#052531"/>
<path d="M460.928 427.94C460.928 427.94 460.957 427.94 460.986 427.94L571.171 413.445C571.403 413.416 571.577 413.214 571.519 412.982C571.49 412.75 571.287 412.576 571.055 412.634L460.87 427.128C460.638 427.157 460.464 427.36 460.522 427.592C460.522 427.795 460.725 427.969 460.928 427.969V427.94Z" fill="#052531"/>
<path d="M460.928 423.591C460.928 423.591 460.957 423.591 460.986 423.591L567.953 411.097V355.845C567.953 355.613 567.779 355.439 567.518 355.439C567.258 355.439 567.084 355.613 567.084 355.845V410.373L460.87 422.78C460.638 422.78 460.464 423.012 460.493 423.244C460.493 423.447 460.696 423.62 460.899 423.62L460.928 423.591Z" fill="#052531"/>
<path d="M519.745 416.721C519.977 416.721 520.18 416.547 520.18 416.315V355.845C520.18 355.613 520.006 355.439 519.745 355.439C519.484 355.439 519.311 355.613 519.311 355.845V416.315C519.311 416.547 519.484 416.721 519.745 416.721Z" fill="#052531"/>
<path d="M510.904 417.389C511.136 417.389 511.31 417.215 511.31 416.983V355.876C511.31 355.644 511.136 355.47 510.904 355.47C510.672 355.47 510.469 355.644 510.469 355.876V416.983C510.469 417.215 510.643 417.389 510.904 417.389Z" fill="#052531"/>
<path d="M514.238 417.389C514.469 417.389 514.672 417.215 514.672 416.983V355.876C514.672 355.644 514.498 355.47 514.238 355.47C513.977 355.47 513.803 355.644 513.803 355.876V416.983C513.803 417.215 513.977 417.389 514.238 417.389Z" fill="#052531"/>
<path d="M564.417 411.157H567.518C567.75 411.157 567.953 410.983 567.953 410.751C567.953 410.519 567.779 410.345 567.518 410.345H565.257V355.876C565.257 355.644 565.083 355.47 564.823 355.47C564.562 355.47 564.417 355.644 564.417 355.876V411.186V411.157Z" fill="#052531"/>
</svg>
