<svg width="655" height="417" viewBox="0 0 655 417" fill="none" xmlns="http://www.w3.org/2000/svg">
<mask id="mask0_4287_17291" style="mask-type:luminance" maskUnits="userSpaceOnUse" x="-13" y="0" width="680" height="417">
<path d="M-12.9478 0H666.688V417H-12.9478V0Z" fill="white"/>
</mask>
<g mask="url(#mask0_4287_17291)">
<g opacity="0.5">
<path d="M433.91 293.971C433.91 293.971 434.026 293.942 434.026 293.884C434.026 293.826 434.026 293.739 433.939 293.739L-2.62796 174.452C-2.62796 174.452 -2.77292 174.452 -2.77292 174.539C-2.77292 174.597 -2.77292 174.684 -2.68597 174.684L433.881 293.971C433.881 293.971 433.881 293.971 433.91 293.971Z" fill="#052531"/>
</g>
<path d="M-6.74428 227.647C-6.74428 227.647 -6.59934 227.618 -6.57036 227.531L85.2073 63.8616C85.2073 63.8616 85.2073 63.6297 85.1204 63.5717C85.0334 63.5137 84.8884 63.5717 84.8305 63.6586L-6.94722 227.328C-6.94722 227.328 -6.94722 227.56 -6.86026 227.618C-6.83127 227.618 -6.80225 227.618 -6.74428 227.618V227.647Z" fill="#052531"/>
<path d="M270.473 675.142C270.473 675.142 270.589 675.142 270.618 675.084C270.705 674.997 270.705 674.852 270.618 674.794L-6.5993 414.158C-6.5993 414.158 -6.83124 414.071 -6.88922 414.158C-6.9762 414.245 -6.9762 414.39 -6.88922 414.448L270.328 675.084C270.328 675.084 270.415 675.142 270.473 675.142Z" fill="#052531"/>
<path d="M270.473 626.905C270.473 626.905 270.589 626.905 270.647 626.818C270.705 626.731 270.705 626.586 270.618 626.528L-6.59933 403.723C-6.59933 403.723 -6.83124 403.665 -6.88922 403.752C-6.9472 403.838 -6.9472 403.983 -6.86026 404.041L270.357 626.847C270.357 626.847 270.444 626.905 270.502 626.905H270.473Z" fill="#052531"/>
<path d="M659.934 270.52C659.934 270.52 660.108 270.462 660.137 270.375C660.166 270.259 660.137 270.143 660.021 270.114L450.608 191.903C450.608 191.903 450.376 191.903 450.347 192.019C450.318 192.135 450.347 192.251 450.463 192.28L659.847 270.52C659.847 270.52 659.905 270.52 659.934 270.52Z" fill="#052531"/>
<path d="M85.0044 300.495C85.0044 300.495 85.0334 300.495 85.0624 300.495L473.915 192.339C473.915 192.339 474.088 192.194 474.059 192.078C474.03 191.962 473.915 191.904 473.799 191.933L84.9464 300.089C84.9464 300.089 84.7725 300.234 84.8015 300.35C84.8015 300.437 84.9174 300.495 85.0044 300.495Z" fill="#052531"/>
<path d="M-6.74429 326.352C-6.74429 326.352 -6.74429 326.352 -6.71533 326.352L251.543 273.071C251.543 273.071 251.717 272.926 251.717 272.81C251.717 272.694 251.572 272.636 251.457 272.636L-6.80228 325.917C-6.80228 325.917 -6.9762 326.062 -6.9762 326.178C-6.9762 326.265 -6.86026 326.352 -6.77332 326.352H-6.74429Z" fill="#052531"/>
<path d="M659.934 333.6C659.934 333.6 660.137 333.513 660.137 333.426C660.137 333.31 660.079 333.194 659.963 333.194L223.802 274.55C223.802 274.55 223.57 274.608 223.57 274.724C223.57 274.84 223.628 274.956 223.744 274.956L659.905 333.6H659.934Z" fill="#052531"/>
<path d="M211.568 537.968C211.568 537.968 211.597 537.968 211.626 537.968L659.992 415.579C659.992 415.579 660.166 415.434 660.137 415.318C660.108 415.202 659.992 415.144 659.876 415.173L211.51 537.533C211.51 537.533 211.336 537.678 211.365 537.794C211.365 537.881 211.481 537.939 211.568 537.939V537.968Z" fill="#052531"/>
<path d="M245.369 537.969C245.369 537.969 245.514 537.94 245.543 537.853C245.601 537.766 245.543 537.621 245.456 537.563L-6.68626 389.345C-6.68626 389.345 -6.9182 389.345 -6.97617 389.432C-7.03415 389.519 -6.97618 389.664 -6.88921 389.722L245.253 537.94C245.253 537.94 245.311 537.969 245.369 537.969Z" fill="#052531"/>
<path d="M659.934 299.712C659.934 299.712 660.108 299.654 660.137 299.567C660.166 299.451 660.137 299.335 660.021 299.306L42.5072 77.7466C42.5072 77.7466 42.2753 77.7466 42.2463 77.8625C42.2173 77.9785 42.2463 78.0944 42.3623 78.1234L659.847 299.712H659.905H659.934Z" fill="#052531"/>
<path d="M659.934 351.891C659.934 351.891 660.137 351.804 660.137 351.689C660.137 351.573 660.05 351.486 659.934 351.486L435.766 346.963C435.766 346.963 435.563 347.05 435.563 347.166C435.563 347.282 435.65 347.369 435.766 347.369L659.934 351.891Z" fill="#052531"/>
<path d="M-6.74423 355.776L473.857 347.369C473.857 347.369 474.06 347.282 474.06 347.166C474.06 347.05 473.973 346.963 473.857 346.963L-6.74423 355.37C-6.74423 355.37 -6.94717 355.457 -6.94717 355.573C-6.94717 355.689 -6.86017 355.776 -6.74423 355.776Z" fill="#052531"/>
<path d="M462.493 489.239C462.493 489.239 462.667 489.181 462.696 489.094C462.696 488.978 462.667 488.862 462.551 488.833L-6.7153 370.096C-6.7153 370.096 -6.9472 370.125 -6.97617 370.241C-6.97617 370.357 -6.94724 370.473 -6.83127 370.502L462.435 489.239C462.435 489.239 462.464 489.239 462.493 489.239Z" fill="#052531"/>
<g opacity="0.5">
<path d="M-6.74433 222.457C-6.74433 222.457 -6.65739 222.457 -6.6284 222.399L85.1493 58.7297C85.1493 58.7297 85.1493 58.5848 85.0913 58.5558C85.0333 58.5268 84.9464 58.5558 84.9174 58.6138L-6.86031 222.283C-6.86031 222.283 -6.8603 222.428 -6.80232 222.457C-6.80232 222.457 -6.77332 222.457 -6.74433 222.457Z" fill="#052531"/>
<path d="M270.473 669.952C270.473 669.952 270.531 669.952 270.56 669.923C270.618 669.865 270.618 669.807 270.56 669.749L-6.65732 409.114C-6.65732 409.114 -6.77328 409.056 -6.83124 409.114C-6.88922 409.172 -6.88922 409.23 -6.83124 409.288L270.386 669.923C270.386 669.923 270.444 669.952 270.473 669.952Z" fill="#052531"/>
<path d="M270.473 621.687C270.473 621.687 270.56 621.687 270.56 621.629C270.589 621.571 270.589 621.484 270.56 621.455L-6.65726 398.649C-6.65726 398.649 -6.80222 398.62 -6.83121 398.649C-6.86017 398.707 -6.86017 398.794 -6.83121 398.823L270.386 621.629C270.386 621.629 270.444 621.629 270.473 621.629V621.687Z" fill="#052531"/>
<path d="M659.934 265.332C659.934 265.332 660.021 265.303 660.05 265.245C660.05 265.187 660.05 265.1 659.963 265.071L450.55 186.86C450.55 186.86 450.405 186.86 450.376 186.947C450.376 187.005 450.376 187.092 450.463 187.121L659.876 265.332C659.876 265.332 659.905 265.332 659.934 265.332Z" fill="#052531"/>
<path d="M85.0043 295.305C85.0043 295.305 85.0043 295.305 85.0333 295.305L473.885 187.149C473.885 187.149 474.001 187.062 473.972 187.004C473.972 186.946 473.885 186.888 473.827 186.917L84.9753 295.074C84.9753 295.074 84.8594 295.161 84.8884 295.218C84.8884 295.276 84.9463 295.305 85.0043 295.305Z" fill="#052531"/>
<path d="M435.737 484.05C435.737 484.05 435.737 484.05 435.766 484.05L659.963 414.507C659.963 414.507 660.079 414.42 660.05 414.362C660.05 414.304 659.963 414.246 659.905 414.275L435.737 483.818C435.737 483.818 435.621 483.905 435.65 483.963C435.65 484.021 435.708 484.05 435.766 484.05H435.737Z" fill="#052531"/>
<path d="M-6.74426 321.163L251.514 267.882C251.514 267.882 251.63 267.795 251.601 267.737C251.601 267.679 251.514 267.621 251.457 267.65L-6.80225 320.931C-6.80225 320.931 -6.91821 321.018 -6.88922 321.076C-6.88922 321.134 -6.83127 321.163 -6.77328 321.163H-6.74426Z" fill="#052531"/>
<path d="M659.934 328.41C659.934 328.41 660.05 328.352 660.05 328.294C660.05 328.236 660.021 328.149 659.934 328.149L223.772 269.505C223.714 269.505 223.656 269.563 223.656 269.621C223.656 269.679 223.685 269.766 223.772 269.766L659.905 328.41H659.934Z" fill="#052531"/>
<path d="M211.568 532.751C211.568 532.751 211.568 532.751 211.597 532.751L659.963 410.39C659.963 410.39 660.079 410.303 660.05 410.245C660.05 410.187 659.963 410.129 659.905 410.158L211.539 532.519C211.539 532.519 211.423 532.606 211.452 532.664C211.452 532.722 211.51 532.751 211.568 532.751Z" fill="#052531"/>
<path d="M245.369 532.751C245.369 532.751 245.456 532.751 245.485 532.693C245.514 532.635 245.485 532.548 245.427 532.519L-6.71535 384.3C-6.71535 384.3 -6.86029 384.3 -6.88927 384.358C-6.91826 384.416 -6.88927 384.503 -6.83128 384.532L245.311 532.751C245.311 532.751 245.34 532.751 245.369 532.751Z" fill="#052531"/>
<path d="M659.934 294.523C659.934 294.523 660.021 294.494 660.05 294.436C660.05 294.378 660.05 294.291 659.963 294.262L42.4781 72.7314C42.4781 72.7314 42.3333 72.7314 42.3043 72.8184C42.3043 72.8764 42.3043 72.9634 42.3912 72.9923L659.876 294.523C659.876 294.523 659.876 294.523 659.905 294.523H659.934Z" fill="#052531"/>
<path d="M659.934 346.703C659.934 346.703 660.05 346.645 660.05 346.587C660.05 346.529 659.992 346.471 659.934 346.471L435.766 341.949C435.766 341.949 435.65 342.007 435.65 342.065C435.65 342.123 435.708 342.181 435.766 342.181L659.934 346.703Z" fill="#052531"/>
<path d="M-6.74426 350.587L473.857 342.181C473.857 342.181 473.972 342.123 473.972 342.065C473.972 342.007 473.915 341.949 473.857 341.949L-6.74426 350.355C-6.74426 350.355 -6.86023 350.413 -6.86023 350.471C-6.86023 350.529 -6.80222 350.587 -6.74426 350.587Z" fill="#052531"/>
<path d="M462.493 484.05C462.493 484.05 462.609 484.021 462.609 483.963C462.609 483.905 462.609 483.818 462.522 483.818L-6.74435 365.081C-6.74435 365.081 -6.88931 365.081 -6.88931 365.168C-6.88931 365.226 -6.88931 365.313 -6.80234 365.313L462.464 484.05C462.464 484.05 462.464 484.05 462.493 484.05Z" fill="#052531"/>
</g>
<g opacity="0.5">
<path d="M-6.74433 231.472C-6.74433 231.472 -6.65739 231.472 -6.6284 231.414L85.1493 67.7449C85.1493 67.7449 85.1493 67.5999 85.0913 67.5709C85.0333 67.542 84.9464 67.5709 84.9174 67.6289L-6.86031 231.298C-6.86031 231.298 -6.8603 231.443 -6.80232 231.472C-6.80232 231.472 -6.77332 231.472 -6.74433 231.472Z" fill="#052531"/>
<path d="M270.473 630.731C270.473 630.731 270.56 630.731 270.56 630.673C270.589 630.615 270.589 630.528 270.56 630.499L-6.65726 407.694C-6.65726 407.694 -6.80222 407.665 -6.83121 407.694C-6.86017 407.752 -6.86017 407.838 -6.83121 407.867L270.386 630.673C270.386 630.673 270.444 630.673 270.473 630.673V630.731Z" fill="#052531"/>
<path d="M659.934 274.375C659.934 274.375 660.021 274.346 660.05 274.288C660.05 274.23 660.05 274.143 659.963 274.114L450.55 195.903C450.55 195.903 450.405 195.903 450.376 195.99C450.376 196.048 450.376 196.135 450.463 196.164L659.876 274.346C659.876 274.346 659.905 274.346 659.934 274.346V274.375Z" fill="#052531"/>
<path d="M85.0043 304.321C85.0043 304.321 85.0043 304.321 85.0333 304.321L473.885 196.164C473.885 196.164 474.001 196.077 473.972 196.019C473.972 195.962 473.885 195.904 473.827 195.933L84.9753 304.089C84.9753 304.089 84.8594 304.176 84.8884 304.234C84.8884 304.292 84.9463 304.321 85.0043 304.321Z" fill="#052531"/>
<path d="M-6.74426 330.207L251.514 276.926C251.514 276.926 251.63 276.839 251.601 276.781C251.601 276.723 251.514 276.665 251.457 276.694L-6.80225 329.975C-6.80225 329.975 -6.91821 330.062 -6.88922 330.12C-6.88922 330.178 -6.83127 330.207 -6.77328 330.207H-6.74426Z" fill="#052531"/>
<path d="M659.934 337.425C659.934 337.425 660.05 337.367 660.05 337.309C660.05 337.251 660.021 337.164 659.934 337.164L223.772 278.52C223.714 278.52 223.656 278.578 223.656 278.636C223.656 278.694 223.685 278.781 223.772 278.781L659.905 337.425H659.934Z" fill="#052531"/>
<path d="M245.369 541.794C245.369 541.794 245.456 541.794 245.485 541.736C245.514 541.678 245.485 541.591 245.427 541.562L-6.71535 393.344C-6.71535 393.344 -6.86029 393.344 -6.88927 393.402C-6.91826 393.46 -6.88927 393.547 -6.83128 393.576L245.311 541.794C245.311 541.794 245.34 541.794 245.369 541.794Z" fill="#052531"/>
<path d="M659.934 303.567C659.934 303.567 660.021 303.538 660.05 303.48C660.05 303.422 660.05 303.335 659.963 303.306L42.4781 81.7466C42.4781 81.7466 42.3333 81.7466 42.3043 81.8335C42.3043 81.8915 42.3043 81.9785 42.3912 82.0075L659.876 303.538C659.876 303.538 659.876 303.538 659.905 303.538L659.934 303.567Z" fill="#052531"/>
<path d="M659.934 355.717C659.934 355.717 660.05 355.66 660.05 355.602C660.05 355.544 659.992 355.486 659.934 355.486L435.766 350.963C435.766 350.963 435.65 351.021 435.65 351.079C435.65 351.137 435.708 351.195 435.766 351.195L659.934 355.717Z" fill="#052531"/>
<path d="M-6.74426 359.602L473.857 351.195C473.857 351.195 473.972 351.137 473.972 351.079C473.972 351.021 473.915 350.963 473.857 350.963L-6.74426 359.37C-6.74426 359.37 -6.86023 359.428 -6.86023 359.486C-6.86023 359.544 -6.80222 359.602 -6.74426 359.602Z" fill="#052531"/>
<path d="M462.493 493.065C462.493 493.065 462.609 493.036 462.609 492.978C462.609 492.92 462.609 492.833 462.522 492.833L-6.74435 374.096C-6.74435 374.096 -6.88931 374.096 -6.88931 374.183C-6.88931 374.241 -6.88931 374.328 -6.80234 374.328L462.464 493.065C462.464 493.065 462.464 493.065 462.493 493.065Z" fill="#052531"/>
</g>
<path d="M646.193 466.425L652.774 463.12V267.911L646.193 265.447V466.425ZM652.339 462.859L646.599 465.758V266.056L652.339 268.201V462.859Z" fill="#052531"/>
<path d="M646.396 466.28C646.396 466.28 646.57 466.222 646.599 466.135C646.628 466.019 646.599 465.903 646.454 465.874L639.874 463.903V267.332L646.425 265.94C646.425 265.94 646.599 265.795 646.599 265.679C646.599 265.563 646.454 265.505 646.338 265.505L639.468 266.984V464.222L646.338 466.28C646.338 466.28 646.367 466.28 646.396 466.28Z" fill="#052531"/>
<path d="M447.912 485.558V199.122L433.707 203.065V481.963L447.912 485.558ZM447.477 199.673V485.007L434.113 481.615V203.354L447.477 199.644V199.673Z" fill="#052531"/>
<path d="M447.477 485.558L461.131 481.354V203.325L447.477 199.122V485.587V485.558ZM460.725 481.035L447.912 484.978V199.673L460.725 203.615V481.035Z" fill="#052531"/>
<path d="M372.803 493.964L383.238 491.123V296.987L372.803 295.625V493.964ZM382.833 490.804L373.237 493.413V296.088L382.833 297.335V490.775V490.804Z" fill="#052531"/>
<path d="M373.034 493.906C373.034 493.906 373.208 493.848 373.237 493.761C373.266 493.645 373.237 493.529 373.121 493.5L363.091 489.876V297.624L373.092 296.059C373.092 296.059 373.295 295.943 373.266 295.827C373.266 295.711 373.15 295.624 373.034 295.653L362.686 297.276V490.195L373.005 493.906H373.063H373.034Z" fill="#052531"/>
<path d="M234.44 531.736L249.05 527.764V277.941H248.877L234.469 276.086V531.736H234.44ZM248.616 527.416L234.846 531.185V276.55L248.616 278.289V527.416Z" fill="#052531"/>
<path d="M234.875 531.824V276.058L221.569 278.841V524.026L221.685 524.084L234.875 531.824ZM234.44 276.58V531.099L221.975 523.765V279.16L234.44 276.551V276.58Z" fill="#052531"/>
<path d="M71.6697 488.601V86.6753L63.147 101.894V480.6L71.6697 488.63V488.601ZM70.829 89.893V486.659L63.9877 480.224V102.097L70.829 89.893Z" fill="#052531"/>
<path d="M70.829 488.108L83.671 486.34V92.2991L70.829 87.6899V488.108ZM82.8593 485.615L71.6987 487.152V88.8785L82.8593 92.8789V485.586V485.615Z" fill="#052531"/>
<path d="M9.80817 430.131V197.44L4.79316 206.398V425.377L4.85115 425.435L9.80817 430.102V430.131ZM9.37336 199.064V429.175L5.199 425.232V206.543L9.37336 199.064Z" fill="#052531"/>
<path d="M9.60525 429.87H17.0263V200.542L9.66324 198.049C9.66324 198.049 9.4313 198.049 9.40231 198.194C9.37332 198.31 9.40232 198.426 9.54726 198.455L16.6205 200.832V429.435H9.60525C9.60525 429.435 9.40231 429.522 9.40231 429.638C9.40231 429.754 9.4893 429.841 9.60525 429.841V429.87Z" fill="#052531"/>
<path d="M280.822 459.467L291.635 457.496V167.147L280.822 163.263V459.467ZM291.229 457.177L281.257 458.975V163.871L291.229 167.437V457.148V457.177Z" fill="#052531"/>
<path d="M281.257 459.555V163.205L270.241 169.119V454.395L281.257 459.555ZM280.822 163.93V458.917L270.647 454.134V169.38L280.822 163.93Z" fill="#052531"/>
<path d="M61.1758 489.238L659.963 406.824C659.963 406.824 660.166 406.708 660.137 406.592C660.137 406.476 660.021 406.389 659.905 406.418L61.1469 488.803C61.1469 488.803 60.944 488.919 60.973 489.035C60.973 489.151 61.0889 489.209 61.1758 489.209V489.238Z" fill="#052531"/>
<path d="M16.8234 472.425C16.8234 472.425 16.8234 472.425 16.8524 472.425L116.486 462.134V300.668C116.486 300.436 116.312 300.262 116.08 300.262C115.848 300.262 115.645 300.436 115.645 300.668V461.351L16.7654 471.584C16.5335 471.584 16.3596 471.816 16.3886 472.048C16.3886 472.251 16.5915 472.425 16.7944 472.425H16.8234Z" fill="#052531"/>
<path d="M239.571 170.046C239.745 170.046 239.919 169.931 239.977 169.757C240.064 169.525 239.919 169.293 239.716 169.235L128.661 132.332C128.458 132.245 128.197 132.39 128.139 132.593C128.052 132.825 128.197 133.057 128.4 133.115L239.455 170.017C239.455 170.017 239.542 170.017 239.6 170.017L239.571 170.046Z" fill="#052531"/>
<path d="M232.585 276.724C232.817 276.724 233.02 276.55 233.02 276.319V162.075C233.02 161.843 232.846 161.669 232.585 161.669C232.324 161.669 232.15 161.843 232.15 162.075V276.319C232.15 276.55 232.324 276.724 232.585 276.724Z" fill="#052531"/>
<path d="M209.887 177.64L210.032 177.582L232.73 167.668C232.933 167.581 233.049 167.321 232.962 167.118C232.875 166.915 232.614 166.799 232.411 166.915L209.858 176.742L133.995 153.145C133.763 153.087 133.531 153.203 133.473 153.435C133.415 153.667 133.531 153.899 133.763 153.957L209.916 177.64H209.887Z" fill="#052531"/>
<path d="M209.858 280.55C210.09 280.55 210.264 280.376 210.264 280.144V177.206C210.264 176.974 210.09 176.8 209.858 176.8C209.626 176.8 209.423 176.974 209.423 177.206V280.144C209.423 280.376 209.597 280.55 209.858 280.55Z" fill="#052531"/>
<path d="M201.828 283.507C202.06 283.507 202.263 283.333 202.263 283.101V182.569L201.973 182.482L134.024 161.668C133.792 161.61 133.56 161.726 133.502 161.958C133.444 162.19 133.56 162.422 133.792 162.48L201.451 183.207V283.101C201.451 283.333 201.625 283.507 201.886 283.507H201.828Z" fill="#052531"/>
<path d="M196.204 186.656L202.031 183.264C202.234 183.148 202.292 182.887 202.176 182.684C202.06 182.481 201.799 182.423 201.596 182.539L196.088 185.757L133.966 166.885C133.734 166.827 133.502 166.943 133.444 167.175C133.386 167.407 133.502 167.639 133.734 167.697L196.204 186.685V186.656Z" fill="#052531"/>
<path d="M196.146 284.695C196.378 284.695 196.552 284.522 196.552 284.29V186.192C196.552 185.961 196.378 185.787 196.146 185.787C195.914 185.787 195.712 185.961 195.712 186.192V284.29C195.712 284.522 195.885 284.695 196.146 284.695Z" fill="#052531"/>
<path d="M160.317 292.088C160.549 292.088 160.722 291.914 160.722 291.682V170.191C160.722 169.959 160.549 169.785 160.317 169.785C160.085 169.785 159.882 169.959 159.882 170.191V291.682C159.882 291.914 160.056 292.088 160.317 292.088Z" fill="#052531"/>
<path d="M150.924 294.031C151.156 294.031 151.359 293.857 151.359 293.625V172.656L154.751 169.554V292.755C154.751 292.987 154.925 293.161 155.157 293.161C155.389 293.161 155.591 292.987 155.591 292.755V168.597C155.591 168.423 155.505 168.278 155.331 168.22C155.186 168.162 155.012 168.191 154.867 168.307L150.634 172.163C150.634 172.163 150.489 172.366 150.489 172.482V293.625C150.489 293.857 150.663 294.031 150.895 294.031H150.924Z" fill="#052531"/>
<path d="M23.2588 291.972L53.5809 276.55V169.408L23.2588 209.296V291.972ZM52.7402 276.057L24.0995 290.609V209.586L52.7402 171.901V276.028V276.057Z" fill="#052531"/>
<path d="M23.6647 209.876H32.2164L32.3323 209.761L53.465 187.671C53.6389 187.497 53.6099 187.236 53.465 187.092C53.291 186.918 53.0301 186.947 52.8851 187.092L31.8685 209.036H23.6937C23.4618 209.036 23.2589 209.21 23.2589 209.442C23.2589 209.674 23.4328 209.847 23.6937 209.847L23.6647 209.876Z" fill="#052531"/>
<path d="M32.0424 287.217C32.2743 287.217 32.4772 287.043 32.4772 286.811V209.47C32.4772 209.238 32.3033 209.064 32.0424 209.064C31.7815 209.064 31.6075 209.238 31.6075 209.47V286.811C31.6075 287.043 31.7815 287.217 32.0424 287.217Z" fill="#052531"/>
<path d="M34.8833 286.029C35.1152 286.029 35.3181 285.855 35.3181 285.623V211.529L53.4939 192.425C53.6388 192.251 53.6388 191.99 53.4939 191.845C53.32 191.671 53.0591 191.7 52.9141 191.845L34.5064 211.21V285.623C34.5064 285.855 34.6803 286.029 34.9122 286.029H34.8833Z" fill="#052531"/>
<path d="M34.8832 211.76H37.3472L37.4632 211.644L53.4649 196.281C53.6388 196.107 53.6388 195.846 53.4649 195.701C53.291 195.527 53.03 195.527 52.8851 195.701L36.9994 210.949H34.8832C34.6513 210.949 34.4774 211.123 34.4774 211.355C34.4774 211.586 34.6513 211.76 34.8832 211.76Z" fill="#052531"/>
<path d="M37.1733 284.87C37.4052 284.87 37.5792 284.696 37.5792 284.464V211.384C37.5792 211.152 37.4052 210.978 37.1733 210.978C36.9414 210.978 36.7385 211.152 36.7385 211.384V284.464C36.7385 284.696 36.9124 284.87 37.1733 284.87Z" fill="#052531"/>
<path d="M262.096 524.922C262.327 524.922 262.501 524.748 262.501 524.516V311.886L330.74 319.017V489.353L355.41 499.267V320.756H355.033L261.661 310.958V524.545C261.661 524.777 261.835 524.951 262.096 524.951V524.922ZM354.569 321.481V497.992L331.581 488.745V319.075L354.569 321.481Z" fill="#052531"/>
<path d="M299.664 381.199H323.841V337.107L299.664 335.136V381.199ZM323 380.358H300.505V336.063L323 337.89V380.358Z" fill="#052531"/>
<path d="M265.922 381.199H295.461V335.223L265.922 332.962V381.228V381.199ZM294.62 380.358H266.762V333.861L294.62 336.006V380.387V380.358Z" fill="#052531"/>
<path d="M299.664 428.45L323.841 426.826V385.953H299.664V428.45ZM323 426.044L300.505 427.551V386.793H323V426.044Z" fill="#052531"/>
<path d="M265.922 430.103L295.461 428.392V385.924L265.922 386.562V430.074V430.103ZM294.62 427.61L266.762 429.204V387.403L294.62 386.794V427.61Z" fill="#052531"/>
<path d="M125.733 353.659H126.168L207.655 352.238V310.93L207.191 310.988L125.762 321.221V353.688L125.733 353.659ZM206.785 351.398L126.545 352.789V321.916L206.785 311.857V351.398Z" fill="#052531"/>
<path d="M135.242 353.514C135.473 353.514 135.676 353.34 135.676 353.108V320.467C135.676 320.235 135.502 320.061 135.242 320.061C134.981 320.061 134.807 320.235 134.807 320.467V353.108C134.807 353.34 134.981 353.514 135.242 353.514Z" fill="#052531"/>
<path d="M169.506 352.906C169.738 352.906 169.941 352.732 169.941 352.5V316.149C169.941 315.917 169.767 315.743 169.506 315.743C169.245 315.743 169.1 315.917 169.1 316.149V352.5C169.1 352.732 169.274 352.906 169.506 352.906Z" fill="#052531"/>
<path d="M162.868 352.906C163.1 352.906 163.302 352.732 163.302 352.5V316.989C163.302 316.757 163.129 316.583 162.868 316.583C162.607 316.583 162.433 316.757 162.433 316.989V352.5C162.433 352.732 162.607 352.906 162.868 352.906Z" fill="#052531"/>
<path d="M174.26 352.848C174.492 352.848 174.695 352.674 174.695 352.442V316.149C174.695 315.917 174.521 315.743 174.26 315.743C173.999 315.743 173.825 315.917 173.825 316.149V352.442C173.825 352.674 173.999 352.848 174.26 352.848Z" fill="#052531"/>
<path d="M23.2588 355.456L53.5809 354.934V330.091L23.2588 334.381V355.485V355.456ZM52.7402 354.093L24.0995 354.586V335.077L52.7402 331.018V354.093Z" fill="#052531"/>
<path d="M28.2158 355.37C28.4477 355.37 28.6506 355.196 28.6506 354.964V334.092C28.6506 333.86 28.4767 333.687 28.2158 333.687C27.9549 333.687 27.781 333.86 27.781 334.092V354.964C27.781 355.196 27.9549 355.37 28.2158 355.37Z" fill="#052531"/>
<path d="M38.4199 355.196C38.6518 355.196 38.8257 355.022 38.8257 354.79V332.643C38.8257 332.411 38.6518 332.237 38.4199 332.237C38.188 332.237 37.9851 332.411 37.9851 332.643V354.79C37.9851 355.022 38.159 355.196 38.4199 355.196Z" fill="#052531"/>
<path d="M42.4493 355.138C42.6812 355.138 42.8841 354.964 42.8841 354.732V332.353C42.8841 332.121 42.7102 331.947 42.4493 331.947C42.1884 331.947 42.0144 332.121 42.0144 332.353V354.732C42.0144 354.964 42.1884 355.138 42.4493 355.138Z" fill="#052531"/>
<path d="M44.9713 355.079C45.2032 355.079 45.4061 354.905 45.4061 354.673V331.714C45.4061 331.483 45.2322 331.309 44.9713 331.309C44.7104 331.309 44.5654 331.483 44.5654 331.714V354.673C44.5654 354.905 44.7393 355.079 44.9713 355.079Z" fill="#052531"/>
<path d="M257.921 617.687L258.385 617.484L653.411 443.147V263.389C653.411 262.925 653.035 262.548 652.571 262.548C652.107 262.548 651.73 262.925 651.73 263.389V442.074L258.182 615.745L73.3801 467.004L115.906 462.598L235.513 532.924V277.275L424.112 302.524V479.527C424.112 479.991 424.489 480.368 424.953 480.368C425.417 480.368 425.794 479.991 425.794 479.527V301.074L425.069 300.987L233.832 275.39V530.025L116.283 460.917L69.1477 465.787L70.7421 467.062L257.921 617.716V617.687Z" fill="#052531"/>
<path d="M71.2638 310.901C71.7277 310.901 72.1045 310.524 72.1045 310.06V77.9491C72.1045 77.4852 71.7277 77.1084 71.2638 77.1084C70.8 77.1084 70.4232 77.4852 70.4232 77.9491V310.06C70.4232 310.524 70.8 310.901 71.2638 310.901Z" fill="#052531"/>
<path d="M355.004 499.441C355.004 499.441 355.149 499.441 355.236 499.412L424.953 480.396L448.55 486.368V348.527H461.334V195.845C461.334 195.381 460.957 195.004 460.493 195.004C460.029 195.004 459.652 195.381 459.652 195.845V346.846H446.869V484.222L424.953 478.686L354.801 497.818C354.366 497.934 354.105 498.398 354.221 498.862C354.337 499.239 354.656 499.47 355.033 499.47L355.004 499.441Z" fill="#052531"/>
<path d="M447.68 486.107C447.68 486.107 447.854 486.107 447.941 486.078L590.825 441.784L640.512 448.77V350.847L590.854 349.426V350.296L589.927 440.305L447.448 484.455C447.013 484.6 446.752 485.064 446.897 485.498C447.013 485.846 447.332 486.078 447.709 486.078L447.68 486.107ZM638.83 352.499V446.857L591.608 440.189L592.507 351.166L638.83 352.499Z" fill="#052531"/>
<path d="M258.182 664.213C258.414 664.213 258.617 664.126 258.791 663.952C259.109 663.604 259.08 663.083 258.762 662.764L5.83667 424.942V206.687L71.6406 89.3127L290.591 167.872V243.967L460.435 196.715L652.252 268.839C652.687 269.013 653.18 268.781 653.324 268.346C653.498 267.911 653.267 267.418 652.832 267.273L460.493 194.976L460.232 195.063L292.243 241.792V166.741L291.693 166.538L70.858 87.3125L4.12634 206.31V425.725L4.38727 425.985L257.573 664.039C257.747 664.184 257.95 664.271 258.153 664.271L258.182 664.213Z" fill="#052531"/>
<path d="M291.432 284.696C291.896 284.696 292.272 284.319 292.272 283.855V242.865C292.272 242.401 291.896 242.024 291.432 242.024C290.968 242.024 290.591 242.401 290.591 242.865V283.855C290.591 284.319 290.968 284.696 291.432 284.696Z" fill="#052531"/>
<path d="M71.2638 467.208C71.7277 467.208 72.1045 466.831 72.1045 466.367V310.061C72.1045 309.597 71.7277 309.22 71.2638 309.22C70.8 309.22 70.4232 309.597 70.4232 310.061V466.367C70.4232 466.831 70.8 467.208 71.2638 467.208Z" fill="#052531"/>
<path d="M116.08 462.569C116.544 462.569 116.921 462.192 116.921 461.728L117.588 301.335L234.817 277.129C235.281 277.042 235.571 276.578 235.455 276.144C235.368 275.68 234.904 275.39 234.469 275.477L115.906 299.972V300.668L115.239 461.757C115.239 462.221 115.616 462.598 116.08 462.598V462.569Z" fill="#052531"/>
<path d="M304.39 300.03L423.822 276.665V231.53L423.301 231.675L304.419 262.258V300.059L304.39 300.03ZM422.982 275.97L305.259 299.016V262.896L422.982 232.632V275.999V275.97Z" fill="#052531"/>
<path d="M313.898 298.146C314.13 298.146 314.304 297.972 314.333 297.74L314.825 264.635L304.94 262.142C304.708 262.084 304.477 262.229 304.419 262.432C304.361 262.664 304.506 262.896 304.737 262.954L313.985 265.273L313.492 297.711C313.492 297.943 313.666 298.146 313.898 298.146Z" fill="#052531"/>
<path d="M314.391 265.361C314.391 265.361 314.449 265.361 314.507 265.361L423.532 238.257C423.764 238.199 423.88 237.967 423.851 237.735C423.793 237.503 423.561 237.387 423.33 237.416L314.304 264.52C314.072 264.578 313.956 264.81 313.985 265.042C314.043 265.245 314.217 265.361 314.391 265.361Z" fill="#052531"/>
<path d="M317.666 297.421C317.898 297.421 318.072 297.247 318.072 297.015V267.36L423.474 241.415C423.706 241.357 423.851 241.126 423.793 240.894C423.735 240.662 423.503 240.517 423.272 240.575L317.203 266.664V296.986C317.203 297.218 317.376 297.392 317.637 297.392L317.666 297.421Z" fill="#052531"/>
<path d="M320.275 296.9C320.507 296.9 320.681 296.726 320.681 296.494V266.607H317.637C317.405 266.607 317.203 266.781 317.203 267.013C317.203 267.245 317.376 267.419 317.637 267.419H319.84V296.465C319.84 296.697 320.014 296.871 320.275 296.871V296.9Z" fill="#052531"/>
<path d="M342.307 292.609C342.539 292.609 342.741 292.435 342.741 292.203V260.982C342.741 260.75 342.567 260.576 342.307 260.576C342.046 260.576 341.901 260.75 341.901 260.982V292.203C341.901 292.435 342.075 292.609 342.307 292.609Z" fill="#052531"/>
<path d="M345.959 291.595C346.191 291.595 346.365 291.421 346.365 291.189V260.055C346.365 259.823 346.191 259.649 345.959 259.649C345.727 259.649 345.524 259.823 345.524 260.055V291.189C345.524 291.421 345.698 291.595 345.959 291.595Z" fill="#052531"/>
<path d="M348.51 291.479C348.742 291.479 348.945 291.305 348.945 291.073V260.055C348.945 259.823 348.771 259.649 348.51 259.649C348.249 259.649 348.075 259.823 348.075 260.055V291.073C348.075 291.305 348.249 291.479 348.51 291.479Z" fill="#052531"/>
<path d="M383.035 284.637C383.267 284.637 383.47 284.464 383.47 284.232V251.417C383.47 251.185 383.296 251.011 383.035 251.011C382.775 251.011 382.601 251.185 382.601 251.417V284.232C382.601 284.464 382.775 284.637 383.035 284.637Z" fill="#052531"/>
<path d="M388.079 283.653C388.311 283.653 388.514 283.479 388.514 283.247V249.707C388.514 249.475 388.34 249.301 388.079 249.301C387.819 249.301 387.645 249.475 387.645 249.707V283.247C387.645 283.479 387.819 283.653 388.079 283.653Z" fill="#052531"/>
<path d="M391.065 282.927C391.297 282.927 391.5 282.753 391.5 282.521V248.953C391.5 248.721 391.326 248.547 391.065 248.547C390.804 248.547 390.63 248.721 390.63 248.953V282.521C390.63 282.753 390.804 282.927 391.065 282.927Z" fill="#052531"/>
<path d="M591.695 351.166C592.159 351.166 592.536 350.79 592.536 350.355C592.536 349.891 592.188 349.514 591.724 349.485L460.522 346.847C460.058 346.847 459.681 347.224 459.681 347.659C459.681 348.123 460.029 348.5 460.493 348.529L591.695 351.166Z" fill="#052531"/>
<path d="M495.308 311.683C495.54 311.683 495.743 311.509 495.743 311.278V240.459C495.743 240.227 495.569 240.053 495.308 240.053C495.047 240.053 494.873 240.227 494.873 240.459V311.278C494.873 311.509 495.047 311.683 495.308 311.683Z" fill="#052531"/>
<path d="M547.835 318.728C548.067 318.728 548.27 318.554 548.27 318.322V259.301C548.27 259.069 548.096 258.896 547.835 258.896C547.574 258.896 547.429 259.069 547.429 259.301V318.322C547.429 318.554 547.603 318.728 547.835 318.728Z" fill="#052531"/>
<path d="M579.723 323.019C579.955 323.019 580.128 322.845 580.128 322.613V270.724C580.128 270.492 579.955 270.318 579.723 270.318C579.491 270.318 579.288 270.492 579.288 270.724V322.613C579.288 322.845 579.462 323.019 579.723 323.019Z" fill="#052531"/>
<path d="M622.075 330.034C622.307 330.034 622.51 329.86 622.51 329.628V285.942C622.51 285.711 622.336 285.537 622.075 285.537C621.814 285.537 621.64 285.711 621.64 285.942V329.628C621.64 329.86 621.814 330.034 622.075 330.034Z" fill="#052531"/>
<path d="M615.784 327.888C616.016 327.888 616.219 327.714 616.219 327.482V287.188L622.162 286.377C622.394 286.348 622.539 286.145 622.51 285.913C622.481 285.681 622.278 285.507 622.046 285.565L615.378 286.493V327.511C615.378 327.743 615.552 327.917 615.813 327.917L615.784 327.888Z" fill="#052531"/>
<path d="M615.784 287.217C615.958 287.217 616.132 287.101 616.19 286.927C616.248 286.695 616.132 286.463 615.929 286.405L579.868 274.81C579.636 274.752 579.404 274.868 579.346 275.071C579.288 275.303 579.404 275.535 579.607 275.593L615.668 287.188C615.668 287.188 615.755 287.188 615.784 287.188V287.217Z" fill="#052531"/>
<path d="M539.284 317.424C539.516 317.424 539.718 317.25 539.718 317.018V260.693L547.893 259.708C548.125 259.708 548.299 259.476 548.27 259.244C548.27 259.012 548.038 258.867 547.806 258.867L538.907 259.94V316.989C538.907 317.221 539.081 317.395 539.342 317.395L539.284 317.424Z" fill="#052531"/>
<path d="M539.284 260.721C539.458 260.721 539.631 260.605 539.689 260.431C539.776 260.199 539.66 259.967 539.429 259.909L495.424 244.777C495.192 244.69 494.96 244.806 494.902 245.038C494.815 245.27 494.931 245.502 495.163 245.56L539.168 260.692C539.168 260.692 539.255 260.692 539.313 260.692L539.284 260.721Z" fill="#052531"/>
<path d="M536.617 317.22C536.849 317.22 537.051 317.046 537.051 316.815V261.678L495.453 247.706C495.221 247.619 494.989 247.764 494.931 247.967C494.844 248.199 494.989 248.431 495.192 248.489L536.211 262.258V316.815C536.211 317.046 536.385 317.22 536.646 317.22H536.617Z" fill="#052531"/>
<path d="M513.136 314.06C513.368 314.06 513.542 313.886 513.542 313.654V254.083C513.542 253.851 513.368 253.677 513.136 253.677C512.904 253.677 512.701 253.851 512.701 254.083V313.654C512.701 313.886 512.875 314.06 513.136 314.06Z" fill="#052531"/>
<path d="M509.715 313.626C509.947 313.626 510.15 313.452 510.15 313.22V252.286L506.875 253.823V312.872C506.875 313.104 507.048 313.278 507.309 313.278C507.57 313.278 507.744 313.104 507.744 312.872V254.344L509.339 253.591V313.191C509.339 313.423 509.512 313.597 509.773 313.597L509.715 313.626Z" fill="#052531"/>
<path d="M534.732 316.989C534.964 316.989 535.167 316.815 535.167 316.583V263.07L536.791 262.403C536.994 262.316 537.11 262.055 537.023 261.852C536.936 261.65 536.675 261.534 536.472 261.621L534.327 262.519V316.612C534.327 316.844 534.501 317.018 534.732 317.018V316.989Z" fill="#052531"/>
<path d="M534.732 263.186C534.906 263.186 535.08 263.071 535.138 262.897C535.196 262.665 535.08 262.433 534.877 262.375L513.281 255.447C513.049 255.389 512.817 255.505 512.759 255.707C512.701 255.939 512.817 256.171 513.02 256.229L534.616 263.158C534.616 263.158 534.703 263.158 534.732 263.158V263.186Z" fill="#052531"/>
<path d="M507.28 254.489C507.454 254.489 507.628 254.374 507.686 254.2C507.773 253.968 507.657 253.736 507.425 253.678L495.453 249.59C495.221 249.503 494.989 249.619 494.931 249.851C494.844 250.083 494.96 250.315 495.192 250.373L507.164 254.46C507.164 254.46 507.251 254.46 507.309 254.46L507.28 254.489Z" fill="#052531"/>
<path d="M613.552 327.57C613.784 327.57 613.987 327.396 613.987 327.164V287.827L613.697 287.74L579.868 277.652C579.636 277.594 579.404 277.71 579.346 277.942C579.288 278.174 579.404 278.406 579.636 278.464L613.146 288.465V327.164C613.146 327.396 613.32 327.57 613.581 327.57H613.552Z" fill="#052531"/>
<path d="M596.623 325.308C596.855 325.308 597.058 325.134 597.058 324.902V283.101C597.058 282.869 596.884 282.695 596.623 282.695C596.362 282.695 596.188 282.869 596.188 283.101V324.902C596.188 325.134 596.362 325.308 596.623 325.308Z" fill="#052531"/>
<path d="M594.391 324.99C594.623 324.99 594.826 324.816 594.826 324.584V281.797L592.362 282.811V324.352C592.362 324.584 592.536 324.758 592.796 324.758C593.057 324.758 593.231 324.584 593.231 324.352V283.362L594.014 283.043V324.584C594.014 324.816 594.188 324.99 594.449 324.99H594.391Z" fill="#052531"/>
<path d="M612.016 327.367C612.248 327.367 612.451 327.193 612.451 326.961V288.986L613.697 288.522C613.929 288.435 614.016 288.203 613.958 287.971C613.871 287.739 613.639 287.652 613.407 287.71L611.61 288.377V326.932C611.61 327.164 611.784 327.338 612.016 327.338V327.367Z" fill="#052531"/>
<path d="M612.016 289.101C612.19 289.101 612.364 288.985 612.422 288.812C612.48 288.58 612.364 288.348 612.132 288.29L596.739 283.797C596.507 283.739 596.275 283.854 596.217 284.086C596.159 284.318 596.275 284.55 596.507 284.608L611.9 289.101C611.9 289.101 611.987 289.101 612.016 289.101Z" fill="#052531"/>
<path d="M592.739 283.507C592.912 283.507 593.086 283.391 593.144 283.217C593.202 282.985 593.086 282.753 592.854 282.695L579.839 278.839C579.607 278.782 579.375 278.897 579.317 279.129C579.259 279.361 579.375 279.593 579.607 279.651L592.623 283.507C592.623 283.507 592.71 283.507 592.739 283.507Z" fill="#052531"/>
<path d="M646.396 528.025C646.396 528.025 646.512 527.967 646.512 527.909V211.354C646.512 211.354 646.454 211.238 646.396 211.238C646.338 211.238 646.28 211.296 646.28 211.354V527.909C646.28 527.909 646.338 528.025 646.396 528.025Z" fill="#052531"/>
<path d="M460.928 624.441C460.928 624.441 461.044 624.383 461.044 624.325V152.131C461.044 152.131 460.986 152.015 460.928 152.015C460.87 152.015 460.812 152.073 460.812 152.131V624.296C460.812 624.296 460.87 624.412 460.928 624.412V624.441Z" fill="#052531"/>
<path d="M447.68 638.152C447.68 638.152 447.796 638.094 447.796 638.036V157.348C447.796 157.348 447.738 157.232 447.68 157.232C447.622 157.232 447.564 157.29 447.564 157.348V638.036C447.564 638.036 447.622 638.152 447.68 638.152Z" fill="#052531"/>
<path d="M291.982 683.49C291.982 683.49 292.098 683.432 292.098 683.374V147.405C292.098 147.405 292.04 147.29 291.982 147.29C291.925 147.29 291.867 147.348 291.867 147.405V683.345C291.867 683.345 291.925 683.461 291.982 683.461V683.49Z" fill="#052531"/>
<path d="M71.2639 537.07C71.2639 537.07 71.3798 537.012 71.3798 536.954V53.0779C71.3798 53.0779 71.3219 52.9619 71.2639 52.9619C71.2059 52.9619 71.1479 53.0199 71.1479 53.0779V536.954C71.1479 536.954 71.2059 537.07 71.2639 537.07Z" fill="#052531"/>
<path d="M373.034 517.27C373.034 517.27 373.15 517.212 373.15 517.155V114.707C373.15 114.707 373.092 114.591 373.034 114.591C372.976 114.591 372.918 114.649 372.918 114.707V517.155C372.918 517.155 372.976 517.27 373.034 517.27Z" fill="#052531"/>
<path d="M4.99606 473.411C4.99606 473.411 5.112 473.353 5.112 473.295V161.204C5.112 161.204 5.05404 161.088 4.99606 161.088C4.93809 161.088 4.88009 161.146 4.88009 161.204V473.266C4.88009 473.266 4.93809 473.382 4.99606 473.382V473.411Z" fill="#052531"/>
<path d="M234.208 550.926C234.208 550.926 234.324 550.868 234.324 550.81V238.749C234.324 238.749 234.266 238.633 234.208 238.633C234.15 238.633 234.092 238.691 234.092 238.749V550.81C234.092 550.81 234.15 550.926 234.208 550.926Z" fill="#052531"/>
<path d="M659.934 248.257C659.934 248.257 660.021 248.228 660.05 248.17C660.05 248.112 660.05 248.025 659.992 247.996L45.0002 3.65186C45.0002 3.65186 44.8553 3.65186 44.8263 3.70983C44.8263 3.76781 44.8263 3.85478 44.8843 3.88376L659.876 248.228C659.876 248.228 659.905 248.228 659.934 248.228V248.257Z" fill="#052531"/>
<path d="M-6.74432 198.396C-6.74432 198.396 -6.65738 198.396 -6.62839 198.338L105.151 3.82544C105.151 3.82544 105.151 3.6805 105.093 3.65151C105.035 3.62252 104.948 3.65151 104.919 3.70949L-6.88927 198.222C-6.88927 198.222 -6.88927 198.367 -6.83128 198.396C-6.83128 198.396 -6.80233 198.396 -6.77335 198.396H-6.74432Z" fill="#052531"/>
<path d="M133.879 297.161C134.111 297.161 134.285 296.987 134.285 296.755V129.694C134.285 129.462 134.111 129.288 133.879 129.288C133.647 129.288 133.444 129.462 133.444 129.694V296.755C133.444 296.987 133.618 297.161 133.879 297.161Z" fill="#052531"/>
<path d="M460.522 434.712L578.998 418.188V359.052H460.522V434.712ZM578.128 417.464L461.333 433.755V359.892H578.128V417.464Z" fill="#052531"/>
<path d="M578.563 418.246C578.766 418.246 578.94 418.101 578.969 417.898C578.998 417.667 578.853 417.464 578.621 417.406L571.519 416.275V359.458C571.519 359.226 571.345 359.052 571.084 359.052C570.823 359.052 570.649 359.226 570.649 359.458V416.971L578.447 418.188H578.505L578.563 418.246Z" fill="#052531"/>
<path d="M460.928 431.58C460.928 431.58 460.957 431.58 460.986 431.58L571.171 417.086C571.403 417.057 571.577 416.854 571.519 416.622C571.49 416.39 571.287 416.216 571.055 416.274L460.87 430.768C460.638 430.797 460.464 431 460.522 431.232C460.522 431.435 460.725 431.609 460.928 431.609V431.58Z" fill="#052531"/>
<path d="M460.928 427.232C460.928 427.232 460.957 427.232 460.986 427.232L567.953 414.738V359.485C567.953 359.254 567.779 359.08 567.518 359.08C567.258 359.08 567.084 359.254 567.084 359.485V414.013L460.87 426.42C460.638 426.42 460.464 426.652 460.493 426.884C460.493 427.087 460.696 427.261 460.899 427.261L460.928 427.232Z" fill="#052531"/>
<path d="M519.745 420.361C519.977 420.361 520.18 420.187 520.18 419.955V359.485C520.18 359.254 520.006 359.08 519.745 359.08C519.484 359.08 519.311 359.254 519.311 359.485V419.955C519.311 420.187 519.484 420.361 519.745 420.361Z" fill="#052531"/>
<path d="M510.904 421.029C511.136 421.029 511.31 420.855 511.31 420.624V359.516C511.31 359.284 511.136 359.11 510.904 359.11C510.672 359.11 510.469 359.284 510.469 359.516V420.624C510.469 420.855 510.643 421.029 510.904 421.029Z" fill="#052531"/>
<path d="M514.238 421.029C514.469 421.029 514.672 420.855 514.672 420.624V359.516C514.672 359.284 514.498 359.11 514.238 359.11C513.977 359.11 513.803 359.284 513.803 359.516V420.624C513.803 420.855 513.977 421.029 514.238 421.029Z" fill="#052531"/>
<path d="M564.417 414.797H567.518C567.75 414.797 567.953 414.623 567.953 414.391C567.953 414.159 567.779 413.985 567.518 413.985H565.257V359.516C565.257 359.284 565.083 359.11 564.823 359.11C564.562 359.11 564.417 359.284 564.417 359.516V414.826V414.797Z" fill="#052531"/>
</g>
</svg>
