<svg width="35" height="35" viewBox="0 0 35 35" fill="none" xmlns="http://www.w3.org/2000/svg">
<path d="M24.0488 29.0187C24.0488 29.7987 24.0516 30.4887 24.0488 31.1778C24.0375 33.1849 22.6707 34.5528 20.6653 34.5537C14.9016 34.5565 9.13691 34.5565 3.37316 34.5537C1.78035 34.5537 0.480974 33.6274 0.112536 32.2278C0.0422238 31.9596 0.00753626 31.6737 0.00659876 31.3962C3.62552e-05 23.6871 -0.00183875 15.9781 0.00191125 8.26901C0.00284875 6.36775 1.37535 4.98869 3.27379 4.96338C3.89347 4.95494 4.5141 4.96244 5.19004 4.96244C5.19004 4.64744 5.1891 4.34838 5.19004 4.05026C5.1966 2.85119 6.06472 1.96244 7.26285 1.94088C7.88347 1.92963 8.50504 1.94744 9.12566 1.92963C9.2316 1.92682 9.38535 1.83119 9.43035 1.73744C9.9666 0.614318 10.8385 -0.03162 12.0872 0.00119254C13.3191 0.034005 14.1553 0.71463 14.6335 1.84244C14.656 1.89494 14.685 1.94557 14.7178 2.01026C15.4088 2.01026 16.0997 2.00744 16.7907 2.01026C18.0488 2.01588 18.8532 2.81275 18.8728 4.06994C18.8775 4.35025 18.8728 4.62963 18.8728 4.95963C19.47 4.95963 20.041 4.93713 20.6091 4.96713C21.0375 4.98963 21.4819 5.01963 21.885 5.14994C23.1797 5.56807 24.0216 6.73244 24.0422 8.09088C24.06 9.25057 24.0525 10.4103 24.0422 11.5699C24.0404 11.7865 24.1078 11.9009 24.3047 11.9993C28.6322 14.1462 30.4266 19.3503 28.6941 23.5296C28.605 23.7453 28.6313 23.8756 28.801 24.0434C30.3413 25.5678 31.8657 27.109 33.405 28.6343C34.456 29.6759 34.755 30.8974 34.2263 32.2653C33.6938 33.6424 32.6569 34.4309 31.1653 34.5265C30.1266 34.5931 29.2463 34.2012 28.5122 33.4643C27.1322 32.0778 25.7466 30.6968 24.3619 29.3131C24.2813 29.2324 24.196 29.1565 24.046 29.0168L24.0488 29.0187ZM5.11972 6.39588C4.51222 6.39588 3.95066 6.41932 3.39191 6.39119C2.2641 6.33494 1.35941 7.10932 1.36504 8.40963C1.39597 15.9678 1.38004 23.5259 1.38004 31.084C1.38004 31.1778 1.38004 31.2715 1.38004 31.3653C1.38004 31.9503 1.64722 32.3956 2.1066 32.7368C2.50035 33.0293 2.94941 33.1081 3.43222 33.1071C9.16222 33.1024 14.8922 33.1043 20.6222 33.1034C20.7272 33.1034 20.8332 33.1034 20.9382 33.0978C21.9028 33.0443 22.6172 32.2934 22.6172 31.3334C22.6172 30.7362 22.6182 30.1381 22.6163 29.5409C22.6163 29.4434 22.6013 29.3459 22.5919 29.2343C22.4241 29.2699 22.2872 29.2981 22.1503 29.329C20.1253 29.794 18.1753 29.5493 16.2825 28.7215C16.0969 28.6399 15.8822 28.5884 15.6797 28.5884C12.4107 28.5799 9.14066 28.5828 5.8716 28.5818C5.71972 28.5818 5.56504 28.5865 5.41597 28.5603C5.03629 28.4937 4.8291 28.2303 4.83285 27.8431C4.83847 27.3706 5.13097 27.1287 5.71785 27.1278C8.26035 27.1259 10.8038 27.1268 13.3463 27.1268C13.4691 27.1268 13.5919 27.1268 13.7044 27.1268C13.2394 26.5409 12.7763 25.9887 12.3535 25.4074C12.2063 25.2049 12.0778 25.114 11.8238 25.1159C9.82035 25.1271 7.81597 25.1224 5.81254 25.1206C5.67285 25.1206 5.53035 25.1187 5.39254 25.0943C5.05785 25.0343 4.85816 24.8028 4.83379 24.4681C4.79722 23.9618 5.0916 23.6768 5.67097 23.6759C7.46347 23.6731 9.25691 23.6749 11.0494 23.6749C11.1713 23.6749 11.2932 23.6749 11.4225 23.6749C11.2435 22.9615 11.0747 22.294 10.8985 21.5909C10.7832 21.5909 10.6435 21.5909 10.5047 21.5909C8.89972 21.5909 7.29379 21.5928 5.68879 21.589C5.19285 21.5881 4.93035 21.4146 4.84691 21.0621C4.72504 20.5437 5.0466 20.1556 5.61941 20.1537C7.26004 20.149 8.90066 20.1518 10.5413 20.1518C10.666 20.1518 10.7916 20.1518 10.8928 20.1518C10.9669 19.4328 11.0372 18.7568 11.1094 18.0574C10.98 18.0574 10.8516 18.0574 10.7241 18.0574C9.02535 18.0574 7.32566 18.0593 5.62691 18.0556C5.14316 18.0546 4.87597 17.8371 4.83566 17.4378C4.78504 16.9399 5.07285 16.6324 5.61191 16.6315C7.45129 16.6278 9.2916 16.624 11.131 16.6353C11.4103 16.6371 11.5575 16.5631 11.6897 16.2978C11.955 15.7653 12.2832 15.2646 12.5841 14.7499C12.6207 14.6881 12.6488 14.6206 12.6938 14.5315C11.6457 14.5315 10.6378 14.5315 9.63097 14.5315C8.26035 14.5315 6.88879 14.5343 5.51816 14.5296C5.04097 14.5278 4.77191 14.2728 4.7616 13.8387C4.75129 13.3831 5.01285 13.1234 5.50691 13.1018C5.6241 13.0971 5.74129 13.0999 5.85847 13.0999C8.49472 13.0999 11.1319 13.1046 13.7682 13.0906C13.9707 13.0896 14.206 13.009 14.3691 12.8881C16.1325 11.584 18.091 10.879 20.296 10.9643C21.0628 10.9943 21.825 11.1256 22.5994 11.2118C22.5994 10.1487 22.6416 9.03588 22.5844 7.92963C22.5478 7.23026 22.1035 6.72776 21.4322 6.51869C20.6035 6.26088 19.7466 6.44463 18.87 6.39119C18.87 6.68932 18.87 6.92182 18.87 7.15432C18.8672 8.53338 18.0647 9.34151 16.6922 9.34338C14.8294 9.34526 12.9657 9.34338 11.1028 9.34338C9.76691 9.34338 8.43097 9.35463 7.09504 9.33869C5.93535 9.32463 5.1291 8.50432 5.11691 7.36151C5.1141 7.05776 5.11691 6.75401 5.11691 6.39682L5.11972 6.39588ZM12.2841 20.1734C12.2907 24.4231 15.7322 27.9349 19.8694 27.9528C24.69 27.9734 27.8972 24.2524 27.9057 20.0993C27.915 15.4728 23.8285 12.2168 20.101 12.2599C15.766 12.3096 12.2766 15.7999 12.2832 20.1734H12.2841ZM12.0647 7.91369C13.6107 7.91369 15.1557 7.91369 16.7016 7.91369C17.3372 7.91369 17.5003 7.75432 17.5003 7.13744C17.5003 6.15401 17.5003 5.17057 17.5003 4.18713C17.5003 3.63025 17.3269 3.44838 16.7728 3.44463C15.9882 3.43994 15.2044 3.44369 14.4197 3.44276C13.6182 3.44276 13.5375 3.37432 13.3885 2.58588C13.2628 1.92025 12.6432 1.47119 11.91 1.51432C11.251 1.55275 10.7991 2.00557 10.7419 2.68619C10.696 3.22338 10.4785 3.43525 9.93285 3.43994C9.0666 3.44744 8.20035 3.43807 7.3341 3.44463C6.82035 3.44838 6.63472 3.63869 6.63285 4.14588C6.63004 5.15276 6.63097 6.15963 6.63285 7.16651C6.63379 7.73463 6.81566 7.91182 7.39597 7.91276C8.95316 7.91369 10.5103 7.91276 12.0675 7.91276L12.0647 7.91369ZM27.855 25.2096C27.1407 26.3459 26.2163 27.2618 25.0978 27.9771C25.1128 28.0137 25.1157 28.0399 25.1307 28.0549C26.6925 29.5915 28.2357 31.1478 29.8247 32.6562C30.586 33.3781 31.7916 33.2637 32.5163 32.494C33.2428 31.7224 33.255 30.5965 32.5041 29.8343C31.0078 28.3146 29.4919 26.8146 27.9835 25.3071C27.9516 25.2753 27.9104 25.2518 27.856 25.2106L27.855 25.2096Z" fill="#F8FAFC"/>
<path d="M18.5278 22.5143C19.275 21.7662 19.9285 21.1118 20.5819 20.4575C21.6835 19.3559 22.785 18.2534 23.8875 17.1528C23.9785 17.0618 24.0685 16.9671 24.1735 16.894C24.4472 16.7028 24.7969 16.7384 25.0435 16.9709C25.291 17.2043 25.35 17.5484 25.1738 17.8334C25.1007 17.9506 24.9985 18.0528 24.9 18.1512C23.0213 20.0328 21.1407 21.9134 19.26 23.7931C18.7303 24.3228 18.436 24.3218 17.9016 23.7874C17.0063 22.8931 16.1016 22.009 15.2278 21.094C15.0628 20.9215 14.925 20.6149 14.9541 20.3946C14.9813 20.1903 15.2157 19.9578 15.4182 19.8453C15.6863 19.6962 15.96 19.8312 16.1757 20.0487C16.8788 20.7537 17.5857 21.4549 18.285 22.1637C18.375 22.2546 18.4341 22.3756 18.5288 22.5143H18.5278Z" fill="#F8FAFC"/>
</svg>
