<svg width="39" height="37" viewBox="0 0 39 37" fill="none" xmlns="http://www.w3.org/2000/svg">
<g clip-path="url(#clip0_21_4)">
<path d="M38.3303 4.10906C38.1194 4.30968 37.9366 4.56093 37.6909 4.7025C36.4741 5.40468 35.2412 6.07781 34.0131 6.75937C33.9044 6.81937 33.7956 6.88218 33.6794 6.92343C33.3194 7.05187 32.9537 6.92156 32.7719 6.61125C32.5834 6.28781 32.6387 5.85187 32.9828 5.65406C34.4153 4.83 35.8572 4.02187 37.315 3.24375C37.7059 3.03468 38.0369 3.23906 38.3303 3.73406V4.10906Z" fill="#F8FAFC"/>
<path d="M15.1459 24.046C15.445 24.5645 15.7187 25.036 15.9897 25.5085C16.3619 26.1582 16.2662 26.5079 15.6119 26.8876C15.0531 27.2129 14.4934 27.5363 13.9028 27.8795C14.1287 28.2713 14.3462 28.6454 14.5591 29.0213C15.1356 30.0404 15.7572 31.037 16.2747 32.0851C16.9347 33.4201 16.3637 35.0785 15.0597 35.8463C13.7716 36.6038 12.0325 36.2692 11.1812 35.0532C10.7322 34.412 10.36 33.7163 9.9653 33.0385C9.08874 31.531 8.21499 30.0207 7.35155 28.5057C7.22874 28.291 7.12562 28.2535 6.88468 28.3332C4.34874 29.1723 1.6403 27.9929 0.492803 25.5648C-0.614385 23.221 0.191866 20.3448 2.43155 18.9685C4.47999 17.7104 6.58749 16.5488 8.66312 15.3357C8.86093 15.2204 9.0503 15.061 9.19187 14.881C12.3625 10.8545 15.5275 6.82509 18.6878 2.79009C19.1153 2.24353 19.5925 1.80291 20.3172 1.70822C21.3531 1.57416 22.1181 1.99134 22.6337 2.86509C23.4831 4.30228 24.3166 5.74884 25.135 7.20384C25.2925 7.48322 25.4566 7.58541 25.7753 7.55728C26.545 7.48791 27.3184 7.46166 28.0891 7.40447C28.5109 7.37259 28.8025 7.53572 29.0087 7.90322C29.4559 8.69541 29.9134 9.48103 30.3728 10.2657C30.5706 10.6032 30.5631 10.9192 30.3447 11.2454C29.8853 11.9279 29.4428 12.6217 28.9778 13.3004C28.8466 13.4917 28.8437 13.6285 28.9628 13.8301C29.74 15.151 30.5134 16.4738 31.2653 17.8098C32.0997 19.292 31.2784 20.9438 29.5956 21.227C28.7603 21.3676 27.9306 21.5392 27.1 21.7013C23.14 22.4776 19.1809 23.2548 15.145 24.047L15.1459 24.046ZM18.7459 5.10197C18.6916 5.19103 18.6644 5.24728 18.6269 5.29509C15.9334 8.72916 13.24 12.1642 10.5391 15.5935C10.4012 15.7679 10.4275 15.8813 10.5259 16.051C11.7587 18.1735 12.9869 20.2998 14.2066 22.4298C14.3209 22.6285 14.4269 22.6642 14.6481 22.6192C17.3969 22.0726 20.1494 21.5401 22.9 21.002C24.3906 20.7104 25.8803 20.4132 27.4112 20.1113C24.5256 15.1126 21.655 10.1401 18.7459 5.10197ZM9.20687 16.7579C8.21124 17.3317 7.25124 17.882 6.29312 18.4379C5.23843 19.0501 4.16218 19.6304 3.13937 20.2932C1.7528 21.1913 1.17343 22.9595 1.68624 24.5026C2.44937 26.8004 5.01999 27.7838 7.16124 26.5735C9.02593 25.5207 10.8728 24.437 12.7262 23.3654C12.7966 23.3251 12.8594 23.2717 12.9362 23.2163C11.6922 21.061 10.4603 18.9282 9.20687 16.7579ZM30.0991 18.8842C30.055 18.7876 29.9847 18.5898 29.8816 18.4107C28.2897 15.646 26.6941 12.8851 25.0994 10.1223C23.8722 7.99603 22.6441 5.87072 21.4197 3.74353C21.2669 3.47822 21.1075 3.23166 20.7709 3.17822C20.3387 3.10884 20.1241 3.39572 19.885 3.67978C19.6769 3.92728 19.8925 4.06791 19.9825 4.23384C20.2009 4.63978 20.4381 5.03541 20.6687 5.43478C23.3716 10.1185 26.0753 14.8023 28.78 19.4842C28.8409 19.5892 28.9009 19.7307 28.9975 19.7738C29.4344 19.9688 30.0981 19.4907 30.1009 18.8851L30.0991 18.8842ZM8.51968 27.5251C8.59843 27.6685 8.65562 27.7773 8.71749 27.8832C9.84999 29.8454 10.9834 31.8085 12.1178 33.7698C12.205 33.9207 12.2912 34.0754 12.4019 34.2076C12.7891 34.6698 13.2962 34.8385 13.8766 34.7138C14.4447 34.591 14.815 34.2273 14.9866 33.6667C15.1291 33.2026 15.0053 32.7854 14.7719 32.3823C13.5878 30.3338 12.4066 28.2845 11.2244 26.236C11.1887 26.1742 11.1437 26.1179 11.0903 26.042C10.2344 26.536 9.3953 27.0198 8.51968 27.5251ZM27.9766 12.1098C28.2841 11.6438 28.5644 11.236 28.8222 10.8142C28.8634 10.7467 28.8287 10.6023 28.7837 10.5198C28.5259 10.051 28.2587 9.58791 27.9822 9.13041C27.9316 9.04603 27.8247 8.93541 27.7469 8.93728C27.2528 8.95041 26.7597 8.99166 26.1991 9.02728C26.7991 10.0688 27.3672 11.0542 27.9766 12.1098ZM12.4037 25.2845C12.6653 25.7345 12.9044 26.147 13.1547 26.5782C13.5991 26.3185 14.0106 26.0785 14.4437 25.8263C14.1841 25.3763 13.9441 24.962 13.6984 24.5363C13.2578 24.7913 12.8519 25.0257 12.4037 25.2845Z" fill="#F8FAFC"/>
<path d="M33.8706 10.245C34.0534 10.2938 34.3525 10.3735 34.6525 10.4532C35.3247 10.6322 35.9988 10.8057 36.6681 10.9932C37.1763 11.1357 37.4106 11.4975 37.2991 11.9269C37.1875 12.3563 36.7994 12.5616 36.2959 12.4313C35.3819 12.196 34.4688 11.9569 33.5603 11.6991C33.1103 11.5716 32.89 11.221 32.965 10.8375C33.0391 10.4597 33.3447 10.2263 33.8716 10.2432L33.8706 10.245Z" fill="#F8FAFC"/>
<path d="M30.1797 0.0009375C30.6784 0.0009375 31.0609 0.403125 30.9559 0.844688C30.7159 1.85906 30.4441 2.86687 30.1525 3.86812C30.0372 4.26281 29.6744 4.42969 29.2956 4.34906C28.9253 4.26937 28.6544 3.94594 28.7472 3.54469C28.9891 2.50687 29.275 1.47844 29.5666 0.451875C29.6528 0.147188 29.9247 0.0253125 30.1787 0L30.1797 0.0009375Z" fill="#F8FAFC"/>
<path d="M5.38938 25.6117C4.43595 25.5713 3.8097 25.246 3.37188 24.5832C3.11501 24.1951 3.17688 23.7723 3.51532 23.5201C3.83782 23.281 4.23907 23.3429 4.54563 23.6804C5.01251 24.1942 5.23751 24.2298 5.84032 23.8838C6.17501 23.6917 6.50501 23.4892 6.84532 23.3082C7.28126 23.0757 7.71345 23.177 7.92626 23.5417C8.14188 23.912 8.02282 24.3376 7.59813 24.5945C7.14063 24.871 6.67751 25.1457 6.1947 25.3735C5.89845 25.5132 5.56001 25.5629 5.38938 25.6117Z" fill="#F8FAFC"/>
<path d="M9.84907 23.1441C9.43563 23.1244 9.12438 22.7878 9.14407 22.3828C9.16469 21.9731 9.49751 21.6731 9.91657 21.6891C10.3262 21.7041 10.6403 22.0425 10.6216 22.4494C10.6028 22.8563 10.2616 23.1638 9.84907 23.1441Z" fill="#F8FAFC"/>
</g>
<defs>
<clipPath id="clip0_21_4">
<rect width="39" height="37" fill="white"/>
</clipPath>
</defs>
</svg>
