<svg width="34" height="34" viewBox="0 0 34 34" fill="none" xmlns="http://www.w3.org/2000/svg">
<path d="M0.0159568 33.7331V32.6353H1.67064V23.2078C1.39877 23.3222 1.14002 23.4356 0.878457 23.5416C0.373144 23.7459 0.00751926 23.5116 0.00376926 22.9688C-0.00279324 22.0903 0.00564426 21.2109 1.92619e-05 20.3325C-0.00185574 20.0241 0.133144 19.8244 0.410644 19.7025C3.35908 18.4144 6.30471 17.1216 9.25971 15.8466C9.43221 15.7725 9.71346 15.7725 9.88596 15.8466C12.8306 17.1187 15.7669 18.4097 18.706 19.6941C18.9966 19.8216 19.1381 20.0241 19.1353 20.3475C19.1278 21.2147 19.1372 22.0819 19.1316 22.9491C19.1278 23.475 18.7275 23.7366 18.2419 23.5359C17.986 23.43 17.7338 23.3147 17.4441 23.1881V25.2909C17.4441 25.6022 17.1919 25.8544 16.8806 25.8544C16.5713 25.8544 16.32 25.6041 16.3172 25.2947C16.3116 24.6131 16.3022 23.9344 16.3313 23.2575C16.3491 22.8338 16.2272 22.6331 15.8222 22.4625C13.8281 21.6225 11.85 20.7422 9.87002 19.8684C9.66189 19.7766 9.49127 19.7672 9.27752 19.8619C7.21221 20.775 5.14314 21.6778 3.07314 22.5797C2.91096 22.65 2.81158 22.7194 2.81252 22.9303C2.82096 26.1056 2.81814 29.2809 2.81908 32.4572C2.81908 32.5022 2.82846 32.5462 2.83596 32.6091H4.50564V32.2481C4.50564 30.0103 4.50564 27.7716 4.50564 25.5337C4.50564 24.8353 4.73627 24.7087 5.58002 24.7641C6.36471 24.8156 7.15314 24.8053 7.93783 24.7612C8.78814 24.7134 9.00564 24.8353 9.00564 25.5525C9.00564 27.7669 9.00564 29.9822 9.00564 32.1966C9.00564 32.3241 9.00564 32.4516 9.00564 32.6044H14.8247C14.7647 32.1881 14.6541 31.7569 14.6531 31.3256C14.6522 30.7819 14.9644 30.3534 15.3516 29.9934C15.6347 29.7309 15.766 29.4328 15.7716 29.0353C15.7791 28.4419 15.9544 27.8822 16.291 27.3825C17.1488 26.1122 18.9235 26.1037 19.7222 27.4125C19.9988 27.8653 20.1619 28.4269 20.2256 28.9575C20.281 29.4244 20.4338 29.7637 20.7516 30.09C21.4725 30.8287 21.5953 31.7587 21.0863 32.595C20.6485 33.3141 19.9856 33.7434 19.1466 33.7453C12.8063 33.7603 6.46596 33.7528 0.126582 33.7519C0.104082 33.7519 0.0806443 33.7444 0.0187693 33.7331H0.0159568ZM1.12689 22.1841C1.25627 22.1372 1.35471 22.1081 1.44846 22.0669C3.98814 20.955 6.52877 19.8478 9.06283 18.7247C9.41252 18.57 9.71158 18.5616 10.0631 18.7181C11.9963 19.5806 13.9388 20.4234 15.8775 21.2728C16.5713 21.5766 17.266 21.8775 18.0047 22.1991C18.0047 21.6844 18.0131 21.2194 17.9963 20.7553C17.9935 20.6803 17.8969 20.5762 17.8191 20.5425C15.1313 19.3612 12.4416 18.1847 9.74814 17.0166C9.64689 16.9725 9.49221 16.9725 9.39096 17.0166C6.69752 18.1847 4.00783 19.3613 1.32096 20.5434C1.23658 20.58 1.13814 20.6991 1.13439 20.7834C1.11564 21.2381 1.12596 21.6937 1.12596 22.185L1.12689 22.1841ZM7.85439 32.6119V25.905H5.64564V32.6119H7.85439ZM18.0038 32.6288C18.3319 32.6288 18.66 32.6316 18.9881 32.6288C19.5281 32.6231 19.9425 32.3934 20.1741 31.9022C20.4047 31.4128 20.1581 31.0519 19.8094 30.7266C19.3491 30.2972 19.14 29.7694 19.1138 29.1338C19.0988 28.7831 18.9956 28.41 18.8353 28.0969C18.4847 27.4172 17.6419 27.3619 17.2425 28.0134C17.0288 28.3622 16.9416 28.8169 16.8956 29.235C16.8394 29.745 16.7006 30.1931 16.3519 30.5709C16.2403 30.6919 16.1241 30.8063 16.0144 30.9291C15.6853 31.2966 15.6656 31.7569 15.9778 32.1394C16.2263 32.4431 16.5516 32.6194 16.95 32.6278C17.3016 32.6353 17.6531 32.6297 18.0047 32.6297L18.0038 32.6288Z" fill="#F8FAFC"/>
<path d="M6.73496 2.24909C6.89808 0.870965 7.78027 0.0056527 8.98964 2.7705e-05C10.2131 -0.00559729 11.0906 0.845653 11.2753 2.24909C11.4084 2.24909 11.5462 2.24909 11.684 2.24909C15.3993 2.24909 19.1146 2.2519 22.8309 2.24347C23.1384 2.24347 23.4328 2.36628 23.6484 2.58472C24.8475 3.79878 26.0643 4.99597 27.2578 6.21565C27.4143 6.37503 27.5559 6.63284 27.5578 6.84659C27.5793 9.19034 27.5709 11.5341 27.57 13.8778C27.57 13.8778 27.57 13.8778 27.57 13.8788C27.57 13.9678 27.495 14.0382 27.4059 14.0382H26.6231C26.5321 14.0382 26.459 13.965 26.459 13.8741V7.31159C26.3221 7.31159 26.2115 7.31159 26.1009 7.31159C25.1634 7.31159 24.2259 7.31159 23.2875 7.31159C22.6846 7.31159 22.5084 7.13815 22.5075 6.54472C22.5065 5.50315 22.5075 4.46159 22.5075 3.38253H9.02246V2.26597H10.0818C10.1362 1.62378 9.59152 1.08003 8.92683 1.12597C8.34464 1.16534 7.90308 1.6669 7.88902 2.25003C7.86089 3.38159 7.87496 4.51409 7.88527 5.64565C7.88808 5.95878 8.13558 6.17628 8.42714 6.18378C8.73277 6.19128 8.98214 5.96628 8.99714 5.63628C9.01308 5.2744 9.00089 4.91253 9.00089 4.5244H10.1484C10.124 5.02409 10.1568 5.53222 10.0631 6.01597C9.90089 6.85409 9.10121 7.39128 8.26496 7.30409C7.43152 7.21597 6.77433 6.5194 6.75746 5.67378C6.74246 4.92472 6.75464 4.17565 6.75464 3.40034H5.06996V16.2957H3.93933C3.93933 11.8828 3.93933 7.47096 3.93933 3.05815C3.93933 2.41128 4.10152 2.24909 4.74652 2.24815C5.40089 2.24815 6.05621 2.24815 6.73402 2.24815L6.73496 2.24909ZM23.6381 6.15847H25.4409C24.8606 5.58097 24.2287 4.9519 23.6381 4.36315V6.15847Z" fill="#F8FAFC"/>
<path d="M31.8244 15.0826C32.2209 15.5241 32.5912 15.9319 32.9559 16.3435C33.285 16.7147 33.3019 16.9107 33.0328 17.3101C32.3344 18.346 31.634 19.3801 30.9178 20.4366C30.7462 20.6897 30.4031 20.7572 30.149 20.5885L30.1397 20.5819C29.8828 20.4113 29.8144 20.0635 29.9869 19.8076C30.6403 18.8401 31.289 17.8782 31.9462 16.9051C31.6987 16.6294 31.4578 16.3604 31.1812 16.0519C31.0884 16.1822 31.0087 16.2891 30.9337 16.3997C28.6828 19.7269 26.4347 23.0569 24.1734 26.3785C24.0225 26.6007 23.7994 26.7976 23.5697 26.9391C22.9819 27.3001 22.3687 27.6207 21.7687 27.9629C21.5325 28.0979 21.299 28.1804 21.045 28.0135C20.804 27.8551 20.7797 27.6188 20.8134 27.3601C20.9147 26.5819 21.0065 25.8029 21.1209 25.0266C21.1434 24.8729 21.2325 24.7182 21.3225 24.586C24.3122 20.1601 27.3065 15.7369 30.2962 11.311C30.7087 10.7007 31.2703 10.3932 32.0015 10.4991C32.6831 10.5985 33.1547 11.0007 33.3647 11.6663C33.5334 12.2026 33.4331 12.7069 33.1181 13.171C32.6906 13.8001 32.2659 14.4301 31.8253 15.0826H31.8244ZM25.2872 22.7363C27.0028 20.1994 28.6978 17.6926 30.3984 15.1791C30.135 14.8857 29.8903 14.6129 29.624 14.3157C27.8531 16.9351 26.1122 19.5094 24.3572 22.1035C24.674 22.3191 24.9619 22.5151 25.2872 22.7363ZM22.0753 26.4732C22.694 26.1722 23.2331 25.8966 23.5659 25.3013C23.8809 24.7369 24.2812 24.2213 24.6544 23.6691C24.3262 23.4479 24.0375 23.2529 23.7244 23.041C23.3475 23.5979 23.0165 24.166 22.6059 24.6694C22.1803 25.1926 22.139 25.7907 22.0753 26.4732ZM31.0575 14.1872C31.1184 14.1029 31.1822 14.0213 31.2394 13.936C31.5665 13.4513 31.9012 12.9722 32.2153 12.4791C32.3944 12.1979 32.3175 11.8735 32.0662 11.7038C31.8103 11.5304 31.5009 11.5838 31.2937 11.8576C31.124 12.0807 30.975 12.3188 30.8175 12.5513C30.415 13.1457 30.4953 13.691 31.0584 14.1872H31.0575Z" fill="#F8FAFC"/>
<path d="M24.179 11.2753V12.3581H7.34436V11.2753H24.179Z" fill="#F8FAFC"/>
<path d="M24.1781 13.5244V14.6091H7.34338V13.5244H24.1781Z" fill="#F8FAFC"/>
<path d="M10.7072 10.1082V9.02441H24.1734V10.1082H10.7072Z" fill="#F8FAFC"/>
<path d="M12.3797 25.8778C12.9075 25.8778 13.4343 25.8741 13.9622 25.8788C14.4215 25.8825 14.6268 26.086 14.6287 26.5453C14.6334 27.4125 14.6334 28.2797 14.6287 29.1469C14.6259 29.6053 14.4206 29.8116 13.9612 29.8135C12.9065 29.8172 11.8518 29.8182 10.7972 29.8135C10.3378 29.8116 10.1334 29.6053 10.1306 29.146C10.1259 28.2788 10.1259 27.4116 10.1306 26.5444C10.1334 26.085 10.3368 25.8825 10.7972 25.8778C11.325 25.8732 11.8518 25.8769 12.3797 25.8769V25.8778ZM11.2697 28.666H13.4765V27.0216H11.2697V28.666Z" fill="#F8FAFC"/>
<path d="M27.2156 24.21C27.4125 24.21 27.571 24.3693 27.571 24.5653V24.569C27.571 26.805 27.571 29.0409 27.571 31.2768C27.571 31.8965 27.4003 32.0653 26.7788 32.0662C25.5563 32.0662 24.3347 32.0662 23.0935 32.0662C22.786 32.0662 22.5356 31.8168 22.5356 31.5093C22.5356 31.2018 22.785 30.9525 23.0925 30.9525H26.4385V24.5653C26.4385 24.3684 26.5978 24.21 26.7938 24.21H27.2147H27.2156Z" fill="#F8FAFC"/>
<path d="M24.18 15.7762V16.8572H15.7725V15.7762H24.18Z" fill="#F8FAFC"/>
<path d="M20.2734 19.1025V18.0188H21.9178V19.1025H20.2734Z" fill="#F8FAFC"/>
<path d="M8.46191 9.01782H9.54004V10.1016H8.46191V9.01782Z" fill="#F8FAFC"/>
<path d="M7.29843 23.0672C7.29843 22.7684 7.05624 22.5262 6.75749 22.5262C6.45874 22.5262 6.21655 22.7684 6.21655 23.0672V23.07C6.21655 23.3687 6.45874 23.6109 6.75749 23.6109C7.05624 23.6109 7.29843 23.3687 7.29843 23.07V23.0672Z" fill="#F8FAFC"/>
</svg>
