<svg width="36" height="36" viewBox="0 0 36 36" fill="none" xmlns="http://www.w3.org/2000/svg">
<path d="M36 22.7127V24.4705C35.9062 25.0452 35.8528 25.6293 35.7122 26.1918C34.5778 30.7377 31.7906 33.8165 27.2916 35.099C22.8441 36.3655 18.8944 35.2246 15.5569 32.0193C15.3825 31.8515 15.2184 31.7774 14.9766 31.7783C12.3281 31.7868 9.67969 31.7961 7.03219 31.7783C4.80844 31.7643 3.2475 29.6127 3.98062 27.5371C4.18031 26.9736 4.59 26.4833 4.91906 25.933C4.22438 25.3246 3.79781 24.493 3.80063 23.4711C3.80344 22.4521 4.24406 21.6271 5.01 20.9511C4.22625 20.264 3.79781 19.4324 3.80063 18.4115C3.8025 17.3924 4.24219 16.5665 5.025 15.8774C4.92937 15.7977 4.85344 15.7433 4.78781 15.6786C4.17656 15.0777 3.83156 14.3483 3.8025 13.4924C3.73969 11.6436 5.17031 10.154 7.02 10.1277C7.6125 10.1193 8.20406 10.1268 8.85281 10.1268C8.10469 8.8902 8.12719 7.69114 8.84156 6.46958C8.6625 6.46958 8.535 6.46958 8.4075 6.46958C6.68531 6.46958 4.96219 6.4827 3.24 6.46489C2.03719 6.4527 1.08937 5.92489 0.474375 4.88895C0.254063 4.51583 0.154687 4.07052 0 3.65802C0 3.37677 0 3.09552 0 2.81427C0.016875 2.77208 0.039375 2.73177 0.050625 2.68864C0.525 0.876455 1.65375 0.00083045 3.52031 0.00083045C8.9925 0.00083045 14.4656 0.00083045 19.9378 0.00083045C20.16 0.00083045 20.3831 -0.00291955 20.6053 0.00551795C22.5328 0.0777054 23.9934 1.88146 23.6344 3.77614C23.5519 4.21208 23.3616 4.62646 23.2181 5.06239C23.3381 5.06239 23.4666 5.06239 23.595 5.06239C25.3406 5.06239 27.0872 5.05114 28.8328 5.06802C30.1453 5.08114 31.3181 5.92677 31.7794 7.14927C32.2509 8.39989 31.92 9.78458 30.9309 10.6836C30.315 11.2433 29.5866 11.5218 28.7569 11.5293C28.1681 11.5349 27.5794 11.5302 26.9766 11.5302C27.0966 11.9446 27.3253 12.1236 27.6975 12.254C31.8553 13.7015 34.5253 16.5524 35.6541 20.8171C35.8181 21.4358 35.8875 22.079 36.0009 22.7108L36 22.7127ZM13.5 23.5921C13.4803 29.4046 18.2063 34.1577 24.0206 34.1736C29.8191 34.1896 34.5609 29.4815 34.5928 23.6783C34.6247 17.8658 29.9053 13.1052 24.0891 13.0799C18.2756 13.0546 13.5197 17.7758 13.5 23.5921ZM11.8631 1.40802C9.01594 1.40802 6.16875 1.40708 3.3225 1.40802C2.42812 1.40802 1.71937 1.91427 1.48406 2.70833C1.13062 3.89802 2.0025 5.05583 3.27281 5.06052C5.52187 5.06896 7.77187 5.06333 10.0209 5.06333C13.4541 5.06333 16.8863 5.06052 20.3194 5.06614C20.82 5.06614 21.2691 4.94614 21.6516 4.61708C22.2356 4.11364 22.4381 3.32427 22.1728 2.60614C21.9037 1.87677 21.2428 1.40989 20.4394 1.40802C17.5809 1.40333 14.7225 1.40614 11.8631 1.40614V1.40802ZM20.1262 10.1268C22.9847 10.1268 25.8431 10.1305 28.7025 10.1249C29.8078 10.123 30.6328 9.26989 30.5831 8.20208C30.5372 7.20552 29.7225 6.47145 28.65 6.47145C24.0806 6.46958 19.5112 6.47145 14.9428 6.47145C13.8066 6.47145 12.6703 6.46583 11.5331 6.47333C10.7016 6.47895 9.99938 7.0152 9.77719 7.7877C9.43406 8.9802 10.3097 10.1221 11.5856 10.1258C14.4328 10.1324 17.2791 10.1277 20.1262 10.1277V10.1268ZM24.7884 11.728C24.7894 11.6821 24.7913 11.6361 24.7922 11.5902C24.5428 11.5705 24.2925 11.5349 24.0431 11.5349C19.3331 11.5311 14.6222 11.5321 9.91219 11.5321C8.95125 11.5321 7.99031 11.5255 7.02938 11.534C6.19969 11.5415 5.49656 12.0777 5.27531 12.8511C4.93406 14.0446 5.81063 15.1827 7.08844 15.1855C9.795 15.1921 12.5016 15.1846 15.2081 15.193C15.4725 15.193 15.6609 15.1199 15.8559 14.9371C17.8669 13.0602 20.2378 11.9652 22.9856 11.7336C23.5819 11.683 24.1866 11.7261 24.7875 11.7261L24.7884 11.728ZM14.3775 16.6011C11.8275 16.6011 9.34781 16.5786 6.87 16.6124C5.92406 16.6255 5.19281 17.4974 5.20406 18.4518C5.21625 19.3996 5.97656 20.2274 6.92719 20.2415C8.74125 20.2677 10.5553 20.2527 12.3694 20.2452C12.4566 20.2452 12.6 20.1636 12.6234 20.0905C13.0125 18.8549 13.5928 17.7158 14.3784 16.6021L14.3775 16.6011ZM12.3797 26.7205C10.6856 26.7205 8.89406 26.7177 7.10344 26.7215C6.01969 26.7243 5.20031 27.5221 5.205 28.5561C5.20875 29.5893 6.02906 30.374 7.12031 30.3749C9.36937 30.3786 11.6175 30.3758 13.8666 30.3749C13.9519 30.3749 14.0381 30.359 14.0484 30.358C13.4991 29.1599 12.9525 27.9665 12.3806 26.7196L12.3797 26.7205ZM12.2175 21.658C10.5094 21.658 8.82469 21.6561 7.14 21.658C6.02625 21.6599 5.20125 22.4427 5.20312 23.489C5.205 24.5343 6.03 25.3105 7.1475 25.3124C8.72812 25.3152 10.3078 25.3133 11.8884 25.3124C11.9887 25.3124 12.09 25.3002 12.0938 25.3002C12.0938 24.6683 12.0778 24.0721 12.0984 23.4777C12.1181 22.8833 12.1744 22.2899 12.2166 21.6571L12.2175 21.658Z" fill="#F8FAFC"/>
<path d="M24.7669 28.2956C24.7144 28.9921 24.4885 29.2949 24.0413 29.294C23.5988 29.2931 23.3803 28.9977 23.3194 28.2956C22.7391 28.1296 22.2057 27.8559 21.7875 27.389C21.3657 26.9184 21.1228 26.3737 21.0957 25.7409C21.075 25.2684 21.3572 24.9374 21.7716 24.9243C22.171 24.9112 22.4532 25.199 22.4982 25.664C22.5638 26.3549 23.0925 26.8659 23.8191 26.9418C24.631 27.0262 25.3247 26.6306 25.5328 25.9659C25.7578 25.2449 25.2422 24.4837 24.4069 24.3309C24.0516 24.2662 23.6822 24.2699 23.3297 24.1931C22.08 23.9184 21.1594 22.8824 21.0966 21.7115C21.03 20.4768 21.7866 19.3884 23.0363 18.9749C23.2903 18.8906 23.3494 18.7762 23.3485 18.5334C23.3475 18.1115 23.6597 17.8049 24.0441 17.8049C24.4275 17.8049 24.75 18.1115 24.7378 18.5343C24.7294 18.8174 24.855 18.8981 25.0875 18.9843C26.1928 19.394 26.8594 20.1731 26.9888 21.3646C27.0394 21.8352 26.7966 22.1699 26.4075 22.2262C25.9885 22.2871 25.6275 22.0256 25.6003 21.5943C25.56 20.9587 25.2394 20.5415 24.6619 20.3221C24.045 20.0877 23.4582 20.1721 22.951 20.6034C22.5525 20.9427 22.3866 21.3815 22.56 21.8952C22.7625 22.4934 23.2257 22.7727 23.8247 22.8599C24.2063 22.9152 24.601 22.9209 24.9675 23.0268C26.1647 23.3727 26.9841 24.4368 26.9953 25.6031C27.0066 26.7618 26.2303 27.7968 25.0435 28.2037C24.9553 28.2337 24.8672 28.2627 24.766 28.2965L24.7669 28.2956Z" fill="#F8FAFC"/>
<path d="M33.1866 23.9324C33.1753 25.1099 32.8407 26.5311 32.1441 27.8615C31.965 28.2036 31.6763 28.3396 31.3322 28.2636C31.0369 28.198 30.7866 27.9121 30.8072 27.6027C30.8194 27.4236 30.8907 27.2399 30.9703 27.0749C31.9894 24.9374 32.0682 22.769 31.1428 20.5883C30.4332 18.9149 29.2585 17.6465 27.6497 16.7877C27.5775 16.7493 27.5044 16.7118 27.4341 16.6715C27.0282 16.4399 26.8903 16.0668 27.075 15.703C27.2607 15.3393 27.6722 15.1921 28.065 15.4255C28.7072 15.8052 29.3625 16.183 29.9372 16.6536C31.9978 18.343 33.1913 20.9493 33.1866 23.9333V23.9324Z" fill="#F8FAFC"/>
<path d="M14.9016 23.8902C14.9166 22.1455 15.2531 20.7261 15.9469 19.3939C16.1128 19.0752 16.3697 18.9261 16.7231 18.988C17.0484 19.0442 17.2584 19.2608 17.2763 19.5814C17.2875 19.7774 17.2088 19.9939 17.1216 20.1777C16.1025 22.3161 16.0247 24.4836 16.9491 26.6642C17.6531 28.3264 18.8203 29.5864 20.4103 30.4489C20.5238 30.5099 20.6409 30.5642 20.7478 30.6346C21.0909 30.8605 21.1922 31.2449 21.0038 31.5814C20.8256 31.8992 20.4356 32.0521 20.0944 31.8552C19.4484 31.4821 18.78 31.1202 18.2119 30.6449C16.0388 28.8289 14.9691 26.4683 14.9006 23.8902H14.9016Z" fill="#F8FAFC"/>
<path d="M25.1372 14.487C25.5375 14.4936 25.8553 14.8152 25.8459 15.2033C25.8366 15.5933 25.5103 15.898 25.1091 15.8914C24.7088 15.8839 24.3938 15.5652 24.4013 15.1752C24.4088 14.7852 24.735 14.4805 25.1372 14.487Z" fill="#F8FAFC"/>
<path d="M22.9818 31.363C23.3822 31.3686 23.699 31.6874 23.6925 32.0764C23.6859 32.4655 23.3587 32.773 22.9593 32.7674C22.56 32.7617 22.2412 32.4411 22.2478 32.053C22.2543 31.663 22.5806 31.3574 22.9818 31.363Z" fill="#F8FAFC"/>
</svg>
